<?xml version="1.0" encoding="UTF-8"?>
<svg width="205px" height="162px" viewBox="0 0 205 162" version="1.1" xmlns="http://www.w3.org/2000/svg" xmlns:xlink="http://www.w3.org/1999/xlink">
    <title>Slice</title>
    <g id="Page-1" stroke="none" stroke-width="1" fill="none" fill-rule="evenodd">
        <path d="M102,14 C145.630495,14 181,49.3695048 181,93 C181,112.914102 173.631651,131.107235 161.472566,145.001785 L42.5274342,145.001785 C30.3683486,131.107235 23,112.914102 23,93 C23,49.3695048 58.3695048,14 102,14 Z" id="Combined-Shape" stroke="#FFFFFF" stroke-width="17"></path>
        <g id="$" transform="translate(74, 28)" fill="#FFFFFF" fill-rule="nonzero">
            <path d="M14.1,74.8 L0,74.8 C0.666666667,82.6666667 3.1,88.6333333 7.3,92.7 C11.5,96.7666667 17.3333333,99.0666667 24.8,99.6 L24.8,108.1 L30.7,108.1 L30.7,99.6 C35.7,99.2666667 39.8,98.2666667 43,96.6 C46.2,94.9333333 48.75,93.0333333 50.65,90.9 C52.55,88.7666667 53.8666667,86.5833333 54.6,84.35 C55.3333333,82.1166667 55.7,80.2666667 55.7,78.8 C55.7,77.1333333 55.5833333,75.2333333 55.35,73.1 C55.1166667,70.9666667 54.3666667,68.8333333 53.1,66.7 C51.8333333,64.5666667 49.8666667,62.5166667 47.2,60.55 C44.5333333,58.5833333 40.7333333,56.9333333 35.8,55.6 C34.8666667,55.3333333 33.9833333,55.1 33.15,54.9 C32.3166667,54.7 31.5,54.5 30.7,54.3 L30.7,36.6 C32.9666667,36.6 34.9,37.5333333 36.5,39.4 C38.1,41.2666667 38.9333333,43.5333333 39,46.2 L53.2,46.2 C53,42.7333333 52.2666667,39.7333333 51,37.2 C49.7333333,34.6666667 48.1,32.55 46.1,30.85 C44.1,29.15 41.7833333,27.8166667 39.15,26.85 C36.5166667,25.8833333 33.7,25.2333333 30.7,24.9 L30.7,17.2 L24.8,17.2 L24.8,24.9 C21.8,25.1 18.9,25.6833333 16.1,26.65 C13.3,27.6166667 10.8333333,28.9833333 8.7,30.75 C6.56666667,32.5166667 4.85,34.7 3.55,37.3 C2.25,39.9 1.6,42.9 1.6,46.3 C1.6,49.6333333 2.16666667,52.4166667 3.3,54.65 C4.43333333,56.8833333 5.95,58.75 7.85,60.25 C9.75,61.75 11.9,62.95 14.3,63.85 C16.7,64.75 19.1333333,65.5333333 21.6,66.2 C22.2666667,66.3333333 22.8833333,66.4833333 23.45,66.65 C24.0166667,66.8166667 24.4666667,66.9666667 24.8,67.1 L24.8,88 C21.7333333,87.4 19.1666667,86 17.1,83.8 C15.0333333,81.6 14.0333333,78.6 14.1,74.8 Z M30.7,88 L30.7,68.8 C34.6333333,69.8666667 37.4166667,71.05 39.05,72.35 C40.6833333,73.65 41.5,75.6 41.5,78.2 C41.5,79.8 41.1666667,81.1833333 40.5,82.35 C39.8333333,83.5166667 38.9833333,84.5 37.95,85.3 C36.9166667,86.1 35.75,86.7166667 34.45,87.15 C33.15,87.5833333 31.9,87.8666667 30.7,88 Z M24.8,36.6 L24.8,52.9 C21.6,52.1666667 19.3,51.2 17.9,50 C16.5,48.8 15.8,47.1 15.8,44.9 C15.8,43.5 16.05,42.2833333 16.55,41.25 C17.05,40.2166667 17.7333333,39.35 18.6,38.65 C19.4666667,37.95 20.4333333,37.4333333 21.5,37.1 C22.5666667,36.7666667 23.6666667,36.6 24.8,36.6 Z" id="Shape"></path>
        </g>
        <path d="M6,125 L11.9382194,125 L30.305687,125 C26.9541225,141.000908 49.2879465,149.000908 97.307159,149 C145.326372,148.999092 170.592307,140.999092 173.104965,125 C182.606781,125 187.638654,125 188.200584,125 C188.762514,125 189.324444,125 189.886374,125 L199,125 L199,154 L6,154 L6,125 Z" id="Rectangle-Copy" fill="#FFFFFF"></path>
    </g>
</svg>