<?xml version="1.0" encoding="UTF-8"?>
<svg width="1216px" height="361px" viewBox="0 0 1216 361" version="1.1" xmlns="http://www.w3.org/2000/svg" xmlns:xlink="http://www.w3.org/1999/xlink">
    <title>Slice 4</title>
    <g id="Page-1" stroke="none" stroke-width="1" fill="none" fill-rule="evenodd">
        <g id="qadabra-copy-2" transform="translate(43, -41)" fill="#4A4A4A" fill-rule="nonzero">
            <path d="M128.7,352 L128.7,283.5 L128.1,283.5 C123.3,289.9 116.85,294.95 108.75,298.65 C100.65,302.35 92,304.2 82.8,304.2 C71.4,304.2 61.3,302 52.5,297.6 C43.7,293.2 36.3,287.35 30.3,280.05 C24.3,272.75 19.7,264.3 16.5,254.7 C13.3,245.1 11.7,235.1 11.7,224.7 C11.7,214.3 13.35,204.35 16.65,194.85 C19.95,185.35 24.65,177 30.75,169.8 C36.85,162.6 44.25,156.9 52.95,152.7 C61.65,148.5 71.4,146.4 82.2,146.4 C93.4,146.4 103.05,148.65 111.15,153.15 C119.25,157.65 125.6,162.9 130.2,168.9 L131.1,168.9 L131.1,150.6 L177.6,150.6 L177.6,352 L128.7,352 Z M130.5,225 C130.5,220.2 129.65,215.5 127.95,210.9 C126.25,206.3 123.85,202.2 120.75,198.6 C117.65,195 113.9,192.1 109.5,189.9 C105.1,187.7 100.1,186.6 94.5,186.6 C88.7,186.6 83.6,187.7 79.2,189.9 C74.8,192.1 71.1,194.95 68.1,198.45 C65.1,201.95 62.85,206 61.35,210.6 C59.85,215.2 59.1,219.9 59.1,224.7 C59.1,229.5 59.85,234.25 61.35,238.95 C62.85,243.65 65.1,247.8 68.1,251.4 C71.1,255 74.8,257.9 79.2,260.1 C83.6,262.3 88.7,263.4 94.5,263.4 C100.1,263.4 105.1,262.3 109.5,260.1 C113.9,257.9 117.65,255 120.75,251.4 C123.85,247.8 126.25,243.7 127.95,239.1 C129.65,234.5 130.5,229.8 130.5,225 Z" id="Shape"></path>
            <path d="M289.5,234.9 L283.2,234.9 C277.8,234.9 272.35,235.15 266.85,235.65 C261.35,236.15 256.45,237.1 252.15,238.5 C247.85,239.9 244.3,241.95 241.5,244.65 C238.7,247.35 237.3,250.9 237.3,255.3 C237.3,258.1 237.95,260.5 239.25,262.5 C240.55,264.5 242.2,266.1 244.2,267.3 C246.2,268.5 248.5,269.35 251.1,269.85 C253.7,270.35 256.2,270.6 258.6,270.6 C268.6,270.6 276.25,267.85 281.55,262.35 C286.85,256.85 289.5,249.4 289.5,240 L289.5,234.9 Z M199.2,171 C208,162.6 218.25,156.3 229.95,152.1 C241.65,147.9 253.6,145.8 265.8,145.8 C278.4,145.8 289.05,147.35 297.75,150.45 C306.45,153.55 313.5,158.35 318.9,164.85 C324.3,171.35 328.25,179.55 330.75,189.45 C333.25,199.35 334.5,211.1 334.5,224.7 L334.5,300 L289.5,300 L289.5,284.1 L288.6,284.1 C284.8,290.3 279.05,295.1 271.35,298.5 C263.65,301.9 255.3,303.6 246.3,303.6 C240.3,303.6 234.1,302.8 227.7,301.2 C221.3,299.6 215.45,297 210.15,293.4 C204.85,289.8 200.5,285 197.1,279 C193.7,273 192,265.6 192,256.8 C192,246 194.95,237.3 200.85,230.7 C206.75,224.1 214.35,219 223.65,215.4 C232.95,211.8 243.3,209.4 254.7,208.2 C266.1,207 277.2,206.4 288,206.4 L288,204 C288,196.6 285.4,191.15 280.2,187.65 C275,184.15 268.6,182.4 261,182.4 C254,182.4 247.25,183.9 240.75,186.9 C234.25,189.9 228.7,193.5 224.1,197.7 L199.2,171 Z" id="Shape"></path>
            <path d="M465.299,109 L481.666,109 L481.666667,125 L514.5,125 L514.5,300 L469.2,300 L469.2,280.5 L468.6,280.5 C463.8,288.1 456.95,293.95 448.05,298.05 C439.15,302.15 429.7,304.2 419.7,304.2 C408.5,304.2 398.5,302 389.7,297.6 C380.9,293.2 373.45,287.35 367.35,280.05 C361.25,272.75 356.6,264.3 353.4,254.7 C350.2,245.1 348.6,235.1 348.6,224.7 C348.6,214.3 350.25,204.35 353.55,194.85 C356.85,185.35 361.55,177 367.65,169.8 C373.75,162.6 381.15,156.9 389.85,152.7 C398.55,148.5 408.3,146.4 419.1,146.4 C430.1,146.4 439.4,148.5 447,152.7 C454.6,156.9 460.5,161.5 464.7,166.5 L465.3,166.5 L465.299,109 Z M467.4,225 C467.4,220.2 466.55,215.5 464.85,210.9 C463.15,206.3 460.75,202.2 457.65,198.6 C454.55,195 450.8,192.1 446.4,189.9 C442,187.7 437,186.6 431.4,186.6 C425.6,186.6 420.5,187.7 416.1,189.9 C411.7,192.1 408,194.95 405,198.45 C402,201.95 399.75,206 398.25,210.6 C396.75,215.2 396,219.9 396,224.7 C396,229.5 396.75,234.25 398.25,238.95 C399.75,243.65 402,247.8 405,251.4 C408,255 411.7,257.9 416.1,260.1 C420.5,262.3 425.6,263.4 431.4,263.4 C437,263.4 442,262.3 446.4,260.1 C450.8,257.9 454.55,255 457.65,251.4 C460.75,247.8 463.15,243.7 464.85,239.1 C466.55,234.5 467.4,229.8 467.4,225 Z" id="Shape"></path>
            <path d="M626.7,234.9 L620.4,234.9 C615,234.9 609.55,235.15 604.05,235.65 C598.55,236.15 593.65,237.1 589.35,238.5 C585.05,239.9 581.5,241.95 578.7,244.65 C575.9,247.35 574.5,250.9 574.5,255.3 C574.5,258.1 575.15,260.5 576.45,262.5 C577.75,264.5 579.4,266.1 581.4,267.3 C583.4,268.5 585.7,269.35 588.3,269.85 C590.9,270.35 593.4,270.6 595.8,270.6 C605.8,270.6 613.45,267.85 618.75,262.35 C624.05,256.85 626.7,249.4 626.7,240 L626.7,234.9 Z M536.4,171 C545.2,162.6 555.45,156.3 567.15,152.1 C578.85,147.9 590.8,145.8 603,145.8 C615.6,145.8 626.25,147.35 634.95,150.45 C643.65,153.55 650.7,158.35 656.1,164.85 C661.5,171.35 665.45,179.55 667.95,189.45 C670.45,199.35 671.7,211.1 671.7,224.7 L671.7,300 L626.7,300 L626.7,284.1 L625.8,284.1 C622,290.3 616.25,295.1 608.55,298.5 C600.85,301.9 592.5,303.6 583.5,303.6 C577.5,303.6 571.3,302.8 564.9,301.2 C558.5,299.6 552.65,297 547.35,293.4 C542.05,289.8 537.7,285 534.3,279 C530.9,273 529.2,265.6 529.2,256.8 C529.2,246 532.15,237.3 538.05,230.7 C543.95,224.1 551.55,219 560.85,215.4 C570.15,211.8 580.5,209.4 591.9,208.2 C603.3,207 614.4,206.4 625.2,206.4 L625.2,204 C625.2,196.6 622.6,191.15 617.4,187.65 C612.2,184.15 605.8,182.4 598.2,182.4 C591.2,182.4 584.45,183.9 577.95,186.9 C571.45,189.9 565.9,193.5 561.3,197.7 L536.4,171 Z" id="Shape"></path>
            <path d="M859.8,224.7 C859.8,235.1 858.2,245.1 855,254.7 C851.8,264.3 847.15,272.75 841.05,280.05 C834.95,287.35 827.5,293.2 818.7,297.6 C809.9,302 799.9,304.2 788.7,304.2 C778.7,304.2 769.25,302.15 760.35,298.05 C751.45,293.95 744.6,288.1 739.8,280.5 L739.2,280.5 L739.2,300 L693.9,300 L693.9,93.2 L743.1,93.2 L743.1,166.5 L743.7,166.5 C747.9,161.5 753.8,156.9 761.4,152.7 C769,148.5 778.3,146.4 789.3,146.4 C800.1,146.4 809.85,148.5 818.55,152.7 C827.25,156.9 834.65,162.6 840.75,169.8 C846.85,177 851.55,185.35 854.85,194.85 C858.15,204.35 859.8,214.3 859.8,224.7 Z M812.4,224.7 C812.4,219.9 811.65,215.2 810.15,210.6 C808.65,206 806.4,201.95 803.4,198.45 C800.4,194.95 796.7,192.1 792.3,189.9 C787.9,187.7 782.8,186.6 777,186.6 C771.4,186.6 766.4,187.7 762,189.9 C757.6,192.1 753.85,195 750.75,198.6 C747.65,202.2 745.25,206.3 743.55,210.9 C741.85,215.5 741,220.2 741,225 C741,229.8 741.85,234.5 743.55,239.1 C745.25,243.7 747.65,247.8 750.75,251.4 C753.85,255 757.6,257.9 762,260.1 C766.4,262.3 771.4,263.4 777,263.4 C782.8,263.4 787.9,262.3 792.3,260.1 C796.7,257.9 800.4,255 803.4,251.4 C806.4,247.8 808.65,243.65 810.15,238.95 C811.65,234.25 812.4,229.5 812.4,224.7 Z" id="Shape"></path>
            <path d="M972.9,190.8 C970.7,190.2 968.55,189.8 966.45,189.6 C964.35,189.4 962.3,189.3 960.3,189.3 C953.7,189.3 948.15,190.5 943.65,192.9 C939.15,195.3 935.55,198.2 932.85,201.6 C930.15,205 928.2,208.7 927,212.7 C925.8,216.7 925.2,220.2 925.2,223.2 L925.2,300 L876,300 L876,150.6 L923.4,150.6 L923.4,172.2 L924,172.2 C927.8,164.6 933.2,158.4 940.2,153.6 C947.2,148.8 955.3,146.4 964.5,146.4 C966.5,146.4 968.45,146.5 970.35,146.7 C972.25,146.9 973.8,147.2 975,147.6 L972.9,190.8 Z" id="Path"></path>
            <path d="M1064.2,234.9 L1057.9,234.9 C1052.5,234.9 1047.05,235.15 1041.55,235.65 C1036.05,236.15 1031.15,237.1 1026.85,238.5 C1022.55,239.9 1019,241.95 1016.2,244.65 C1013.4,247.35 1012,250.9 1012,255.3 C1012,258.1 1012.65,260.5 1013.95,262.5 C1015.25,264.5 1016.9,266.1 1018.9,267.3 C1020.9,268.5 1023.2,269.35 1025.8,269.85 C1028.4,270.35 1030.9,270.6 1033.3,270.6 C1043.3,270.6 1050.95,267.85 1056.25,262.35 C1061.55,256.85 1064.2,249.4 1064.2,240 L1064.2,234.9 Z M973.9,171 C982.7,162.6 992.95,156.3 1004.65,152.1 C1016.35,147.9 1028.3,145.8 1040.5,145.8 C1053.1,145.8 1063.75,147.35 1072.45,150.45 C1081.15,153.55 1088.2,158.35 1093.6,164.85 C1099,171.35 1102.95,179.55 1105.45,189.45 C1107.95,199.35 1109.2,211.1 1109.2,224.7 L1109.2,300 L1064.2,300 L1064.2,284.1 L1063.3,284.1 C1059.5,290.3 1053.75,295.1 1046.05,298.5 C1038.35,301.9 1030,303.6 1021,303.6 C1015,303.6 1008.8,302.8 1002.4,301.2 C996,299.6 990.15,297 984.85,293.4 C979.55,289.8 975.2,285 971.8,279 C968.4,273 966.7,265.6 966.7,256.8 C966.7,246 969.65,237.3 975.55,230.7 C981.45,224.1 989.05,219 998.35,215.4 C1007.65,211.8 1018,209.4 1029.4,208.2 C1040.8,207 1051.9,206.4 1062.7,206.4 L1062.7,204 C1062.7,196.6 1060.1,191.15 1054.9,187.65 C1049.7,184.15 1043.3,182.4 1035.7,182.4 C1028.7,182.4 1021.95,183.9 1015.45,186.9 C1008.95,189.9 1003.4,193.5 998.8,197.7 L973.9,171 Z" id="Shape"></path>
        </g>
        <g id="Group-2" transform="translate(510, 41)">
            <rect id="Rectangle-7" fill="#4C9FDA" x="17" y="25" width="17" height="17"></rect>
            <rect id="Rectangle-7" fill="#F5A622" x="37" y="22" width="17" height="17"></rect>
            <rect id="Rectangle-7" fill="#E26565" x="46" y="0" width="17" height="17"></rect>
            <rect id="Rectangle-7" fill="#43B375" x="22" y="2" width="17" height="17"></rect>
            <rect id="Rectangle-7" fill="#8585AD" x="0" y="6" width="17" height="17"></rect>
        </g>
    </g>
</svg>