<?xml version="1.0" encoding="UTF-8"?>
<svg width="1000px" height="1000px" viewBox="0 0 1000 1000" version="1.1" xmlns="http://www.w3.org/2000/svg" xmlns:xlink="http://www.w3.org/1999/xlink">
    <title>Slice 9</title>
    <defs>
        <filter x="-1.8%" y="-1.0%" width="103.5%" height="100.8%" filterUnits="objectBoundingBox" id="filter-1">
            <feOffset dx="0" dy="4" in="SourceAlpha" result="shadowOffsetOuter1"></feOffset>
            <feGaussianBlur stdDeviation="4" in="shadowOffsetOuter1" result="shadowBlurOuter1"></feGaussianBlur>
            <feColorMatrix values="0 0 0 0 0   0 0 0 0 0   0 0 0 0 0  0 0 0 0.25 0" type="matrix" in="shadowBlurOuter1" result="shadowMatrixOuter1"></feColorMatrix>
            <feMerge>
                <feMergeNode in="shadowMatrixOuter1"></feMergeNode>
                <feMergeNode in="SourceGraphic"></feMergeNode>
            </feMerge>
        </filter>
    </defs>
    <g id="Page-1" stroke="none" stroke-width="1" fill="none" fill-rule="evenodd">
        <g id="Group" filter="url(#filter-1)" transform="translate(102, 24)">
            <g id="Qai" transform="translate(-16, 0)">
                <g transform="translate(212, 738)" fill="#545454" fill-rule="nonzero" id="Shape">
                    <path d="M99.5228677,198 C84.7787392,198 71.263288,195.887208 58.9765142,191.661623 C46.6897404,187.436039 36.2021014,181.229711 27.513597,173.042641 C18.8250927,164.855571 12.0673671,154.819807 7.24042027,142.935351 C2.41347342,131.050894 0,117.449794 0,102.13205 C0,87.8707015 2.54511743,74.8418157 7.63535229,63.045392 C12.7255871,51.2489684 19.7904821,41.1251719 28.8300371,32.6740028 C37.8695921,24.2228336 48.5766378,17.6643741 60.9511743,12.9986245 C73.3257108,8.33287483 86.7095179,6 101.102596,6 C115.495674,6 128.8356,8.33287483 141.122373,12.9986245 C153.409147,17.6643741 164.02843,24.1788171 172.980222,32.5419532 C181.932015,40.9050894 188.909147,50.9408528 193.911619,62.6492435 C198.914091,74.3576341 201.415328,87.2544704 201.415328,101.339752 C201.415328,108.558459 200.625464,115.292985 199.045735,121.543329 C197.466007,127.793673 195.359703,133.471802 192.726823,138.577717 C190.093943,143.683631 187.110012,148.217331 183.775031,152.178817 C180.440049,156.140303 177.105068,159.441541 173.770087,162.082531 L173.770087,162.874828 L213,162.082531 L213,198 L99.5228677,198 Z M153.760198,102.660248 C153.760198,94.5612105 152.487639,87.0784044 149.942522,80.2118294 C147.397404,73.3452545 143.799135,67.4470426 139.147713,62.5171939 C134.496292,57.5873453 128.923362,53.7579092 122.428925,51.0288858 C115.934487,48.2998624 108.825711,46.9353508 101.102596,46.9353508 C93.5550062,46.9353508 86.5778739,48.2998624 80.171199,51.0288858 C73.7645241,53.7579092 68.1915946,57.5873453 63.4524104,62.5171939 C58.7132262,67.4470426 55.0271941,73.3452545 52.394314,80.2118294 C49.7614339,87.0784044 48.4449938,94.5612105 48.4449938,102.660248 C48.4449938,111.111417 49.7175525,118.814305 52.26267,125.768913 C54.8077874,132.723521 58.4060569,138.709766 63.0574784,143.727648 C67.7088999,148.74553 73.2379481,152.618982 79.644623,155.348006 C86.0512979,158.077029 93.1161928,159.441541 100.839308,159.441541 C108.386897,159.441541 115.407911,158.077029 121.902349,155.348006 C128.396786,152.618982 134.013597,148.74553 138.752781,143.727648 C143.491965,138.709766 147.177998,132.723521 149.810878,125.768913 C152.443758,118.814305 153.760198,111.111417 153.760198,102.660248 Z"></path>
                    <path d="M301.210526,139.484791 L295.64,139.484791 C290.865263,139.484791 286.046316,139.705006 281.183158,140.145437 C276.32,140.585868 271.987368,141.422687 268.185263,142.655894 C264.383158,143.8891 261.244211,145.694867 258.768421,148.073194 C256.292632,150.451521 255.054737,153.57858 255.054737,157.454373 C255.054737,159.920786 255.629474,162.034854 256.778947,163.796578 C257.928421,165.558302 259.387368,166.967681 261.155789,168.024715 C262.924211,169.081749 264.957895,169.830482 267.256842,170.270913 C269.555789,170.711343 271.766316,170.931559 273.888421,170.931559 C282.730526,170.931559 289.494737,168.509189 294.181053,163.664449 C298.867368,158.819708 301.210526,152.257288 301.210526,143.977186 L301.210526,139.484791 Z M221.366316,83.1977186 C229.147368,75.7984791 238.210526,70.2490494 248.555789,66.5494297 C258.901053,62.8498099 269.467368,61 280.254737,61 C291.395789,61 300.812632,62.3653359 308.505263,65.0960076 C316.197895,67.8266793 322.431579,72.0548162 327.206316,77.7804183 C331.981053,83.5060203 335.473684,90.7290875 337.684211,99.4496198 C339.894737,108.170152 341,118.520279 341,130.5 L341,196.828897 L301.210526,196.828897 L301.210526,182.823194 L300.414737,182.823194 C297.054737,188.284537 291.970526,192.512674 285.162105,195.507605 C278.353684,198.502535 270.970526,200 263.012632,200 C257.707368,200 252.225263,199.295311 246.566316,197.885932 C240.907368,196.476553 235.734737,194.186312 231.048421,191.015209 C226.362105,187.844106 222.515789,183.61597 219.509474,178.330798 C216.503158,173.045627 215,166.52725 215,158.775665 C215,149.262357 217.608421,141.598859 222.825263,135.785171 C228.042105,129.971483 234.762105,125.479087 242.985263,122.307985 C251.208421,119.136882 260.36,117.022814 270.44,115.965779 C280.52,114.908745 290.334737,114.380228 299.884211,114.380228 L299.884211,112.26616 C299.884211,105.747782 297.585263,100.947085 292.987368,97.8640684 C288.389474,94.781052 282.730526,93.2395437 276.010526,93.2395437 C269.821053,93.2395437 263.852632,94.5608365 258.105263,97.2034221 C252.357895,99.8460076 247.450526,103.01711 243.383158,106.71673 L221.366316,83.1977186 Z"></path>
                    <path d="M401,23.6144578 C401,26.9379741 400.348404,30.042838 399.045213,32.9290495 C397.742021,35.815261 396.004433,38.3078983 393.832447,40.4069612 C391.660461,42.5060241 389.054078,44.1677822 386.013298,45.3922356 C382.972518,46.616689 379.801418,47.2289157 376.5,47.2289157 C369.549645,47.2289157 363.728723,44.9112004 359.037234,40.2757697 C354.345745,35.6403391 352,30.0865685 352,23.6144578 C352,20.4658635 352.608156,17.4484605 353.824468,14.562249 C355.04078,11.6760375 356.778369,9.18340027 359.037234,7.08433735 C361.296099,4.98527443 363.902482,3.27978581 366.856383,1.96787149 C369.810284,0.655957162 373.024823,0 376.5,0 C379.801418,0 382.972518,0.612226685 386.013298,1.83668005 C389.054078,3.06113342 391.660461,4.72289157 393.832447,6.82195448 C396.004433,8.9210174 397.742021,11.4136546 399.045213,14.2998661 C400.348404,17.1860776 401,20.2909415 401,23.6144578 Z M355.12766,196 L355.12766,65.3333333 L397.87234,65.3333333 L397.87234,196 L355.12766,196 Z"></path>
                </g>
                <path d="M743.450644,218.005466 L743.450644,713 L86,713 L86,53.0072886 L496.906652,53.0072886 L496.906652,135.506378 L579.087983,135.506378 L579.087983,218.005466 L743.450644,218.005466 Z" id="Rectangle-1" fill="#E26565"></path>
                <rect id="Rectangle-7" fill="#E26565" x="587.656652" y="116.408163" width="82.0515021" height="82.1093294"></rect>
                <rect id="Rectangle-7" fill="#E26565" x="684.248927" y="100.817784" width="82.0515021" height="82.1093294"></rect>
                <rect id="Rectangle-7" fill="#E26565" x="729.948498" y="0" width="82.0515021" height="82.1093294"></rect>
                <rect id="Rectangle-7" fill="#E26565" x="614.660944" y="8.3148688" width="82.0515021" height="82.1093294"></rect>
                <rect id="Rectangle-7" fill="#E26565" x="510.798283" y="28.0626822" width="82.0515021" height="82.1093294"></rect>
                <rect id="Rectangle-2" fill-opacity="0.50152972" fill="#000000" x="175" y="274" width="475" height="224" rx="112"></rect>
                <circle id="Oval-2" fill="#E26565" cx="304.5" cy="385.5" r="69.5"></circle>
                <circle id="Oval-2-Copy" fill="#E26565" cx="523.5" cy="386.5" r="69.5"></circle>
                <circle id="Oval-2-Copy-2" fill="#E26565" cx="85.5" cy="386.5" r="69.5"></circle>
                <circle id="Oval-2-Copy-3" fill="#E26565" cx="742.5" cy="386.5" r="69.5"></circle>
            </g>
        </g>
    </g>
</svg>