<?xml version="1.0" encoding="UTF-8"?>
<svg width="641px" height="250px" viewBox="0 0 641 250" version="1.1" xmlns="http://www.w3.org/2000/svg" xmlns:xlink="http://www.w3.org/1999/xlink">
    <title>Slice 7</title>
    <g id="Page-1" stroke="none" stroke-width="1" fill="none" fill-rule="evenodd">
        <g id="Qai" transform="translate(30, 19)">
            <g transform="translate(0, 25)" fill="#E26565" fill-rule="nonzero" id="Shape">
                <path d="M74.2917182,148 C63.2855377,148 53.1965389,146.415406 44.0247219,143.246217 C34.8529048,140.077029 27.0241038,135.422283 20.5383189,129.281981 C14.052534,123.141678 9.00803461,115.614856 5.40482077,106.701513 C1.80160692,97.7881706 0,87.5873453 0,76.0990371 C0,65.4030261 1.89987639,55.6313618 5.69962917,46.784044 C9.49938195,37.9367263 14.7731768,30.343879 21.5210136,24.0055021 C28.2688504,17.6671252 36.2614339,12.7482806 45.4987639,9.24896836 C54.7360939,5.74965612 64.7268232,4 75.4709518,4 C86.2150803,4 96.1730532,5.74965612 105.34487,9.24896836 C114.516687,12.7482806 122.443758,17.6341128 129.126082,23.9064649 C135.808405,30.1788171 141.016687,37.7056396 144.750927,46.4869326 C148.485167,55.2682256 150.352287,64.9408528 150.352287,75.5048143 C150.352287,80.9188446 149.76267,85.9697387 148.583436,90.6574966 C147.404203,95.3452545 145.831891,99.6038514 143.866502,103.433287 C141.901112,107.262724 139.673671,110.662999 137.184178,113.634113 C134.694685,116.605227 132.205192,119.081155 129.715698,121.061898 L129.715698,121.656121 L159,121.061898 L159,148 L74.2917182,148 Z M114.778739,76.4951857 C114.778739,70.4209078 113.828801,64.8088033 111.928925,59.6588721 C110.029048,54.5089409 107.343016,50.085282 103.870828,46.3878955 C100.39864,42.6905089 96.2385661,39.8184319 91.3906057,37.7716644 C86.5426452,35.7248968 81.2360939,34.7015131 75.4709518,34.7015131 C69.8368356,34.7015131 64.6285538,35.7248968 59.8461063,37.7716644 C55.0636588,39.8184319 50.9035847,42.6905089 47.3658838,46.3878955 C43.8281829,50.085282 41.0766378,54.5089409 39.1112485,59.6588721 C37.1458591,64.8088033 36.1631644,70.4209078 36.1631644,76.4951857 C36.1631644,82.8335626 37.1131026,88.610729 39.012979,93.826685 C40.9128554,99.042641 43.5988875,103.532325 47.0710754,107.295736 C50.5432633,111.059147 54.670581,113.964237 59.4530284,116.011004 C64.2354759,118.057772 69.5092707,119.081155 75.2744129,119.081155 C80.908529,119.081155 86.1495674,118.057772 90.9975278,116.011004 C95.8454883,113.964237 100.038319,111.059147 103.57602,107.295736 C107.113721,103.532325 109.865266,99.042641 111.830655,93.826685 C113.796044,88.610729 114.778739,82.8335626 114.778739,76.4951857 Z"></path>
                <path d="M225.315789,104.722433 L221.16,104.722433 C217.597895,104.722433 214.002807,104.887199 210.374737,105.21673 C206.746667,105.546261 203.514386,106.17237 200.677895,107.095057 C197.841404,108.017744 195.499649,109.368821 193.652632,111.148289 C191.805614,112.927757 190.882105,115.267427 190.882105,118.1673 C190.882105,120.012674 191.310877,121.594423 192.168421,122.912548 C193.025965,124.230672 194.114386,125.285171 195.433684,126.076046 C196.752982,126.86692 198.270175,127.427123 199.985263,127.756654 C201.700351,128.086185 203.349474,128.250951 204.932632,128.250951 C211.529123,128.250951 216.575439,126.43853 220.071579,122.813688 C223.567719,119.188847 225.315789,114.278834 225.315789,108.08365 L225.315789,104.722433 Z M165.749474,62.608365 C171.554386,57.0722433 178.315789,52.9201521 186.033684,50.1520913 C193.751579,47.3840304 201.634386,46 209.682105,46 C217.993684,46 225.018947,47.0215463 230.757895,49.0646388 C236.496842,51.1077313 241.147368,54.2712294 244.709474,58.5551331 C248.271579,62.8390368 250.877193,68.243346 252.526316,74.7680608 C254.175439,81.2927757 255,89.0367554 255,98 L255,147.627376 L225.315789,147.627376 L225.315789,137.148289 L224.722105,137.148289 C222.215439,141.234474 218.422456,144.397972 213.343158,146.638783 C208.26386,148.879594 202.755789,150 196.818947,150 C192.861053,150 188.771228,149.47275 184.549474,148.418251 C180.327719,147.363752 176.468772,145.65019 172.972632,143.277567 C169.476491,140.904943 166.607018,137.741445 164.364211,133.787072 C162.121404,129.8327 161,124.95564 161,119.155894 C161,112.038023 162.945965,106.304183 166.837895,101.954373 C170.729825,97.6045627 175.743158,94.243346 181.877895,91.8707224 C188.012632,89.4980989 194.84,87.9163498 202.36,87.1254753 C209.88,86.3346008 217.202105,85.9391635 224.326316,85.9391635 L224.326316,84.3574144 C224.326316,79.4803549 222.611228,75.8884664 219.181053,73.581749 C215.750877,71.2750317 211.529123,70.121673 206.515789,70.121673 C201.898246,70.121673 197.445614,71.1102662 193.157895,73.0874525 C188.870175,75.0646388 185.209123,77.4372624 182.174737,80.2053232 L165.749474,62.608365 Z"></path>
                <path d="M300,17.7108434 C300,20.2034806 299.507979,22.5321285 298.523936,24.6967871 C297.539894,26.8614458 296.227837,28.7309237 294.587766,30.3052209 C292.947695,31.8795181 290.97961,33.1258367 288.683511,34.0441767 C286.387411,34.9625167 283.992908,35.4216867 281.5,35.4216867 C276.251773,35.4216867 271.856383,33.6834003 268.31383,30.2068273 C264.771277,26.7302544 263,22.5649264 263,17.7108434 C263,15.3493976 263.45922,13.0863454 264.37766,10.9216867 C265.296099,8.75702811 266.608156,6.8875502 268.31383,5.31325301 C270.019504,3.73895582 271.987589,2.45983936 274.218085,1.47590361 C276.448582,0.491967871 278.875887,4.54747351e-13 281.5,4.54747351e-13 C283.992908,4.54747351e-13 286.387411,0.459170013 288.683511,1.37751004 C290.97961,2.29585007 292.947695,3.54216867 294.587766,5.11646586 C296.227837,6.69076305 297.539894,8.56024096 298.523936,10.7248996 C299.507979,12.8895582 300,15.2182062 300,17.7108434 Z M265.361702,147 L265.361702,49 L297.638298,49 L297.638298,147 L265.361702,147 Z"></path>
            </g>
            <g id="Group" transform="translate(350, 0)">
                <path d="M159,61 L205,61 L205,200 L20,200 L20,15 L135,15 L135,38 L158,38 L158,15 L159,15 L159,61 Z" id="Rectangle-1" fill="#E26565"></path>
                <rect id="Rectangle-7" fill="#E26565" x="160.868204" y="32.6530612" width="23.08987" height="23.03207"></rect>
                <rect id="Rectangle-7" fill="#E26565" x="188.049949" y="28.2798834" width="23.08987" height="23.03207"></rect>
                <rect id="Rectangle-7" fill="#E26565" x="200.91013" y="0" width="23.08987" height="23.03207"></rect>
                <rect id="Rectangle-7" fill="#E26565" x="168.467401" y="2.33236152" width="23.08987" height="23.03207"></rect>
                <rect id="Rectangle-7" fill="#E26565" x="139.239718" y="7.87172012" width="23.08987" height="23.03207"></rect>
                <rect id="Rectangle-2" fill-opacity="0.50152972" fill="#000000" x="44.7437186" y="76.858345" width="133.668342" height="62.8330996" rx="31.4165498"></rect>
                <ellipse id="Oval-2" fill="#E26565" cx="81.1859296" cy="108.134642" rx="19.5577889" ry="19.4950912"></ellipse>
                <ellipse id="Oval-2-Copy" fill="#E26565" cx="142.81407" cy="108.415147" rx="19.5577889" ry="19.4950912"></ellipse>
                <ellipse id="Oval-2-Copy-2" fill="#E26565" cx="19.5577889" cy="108.415147" rx="19.5577889" ry="19.4950912"></ellipse>
                <ellipse id="Oval-2-Copy-3" fill="#E26565" cx="204.442211" cy="108.415147" rx="19.5577889" ry="19.4950912"></ellipse>
            </g>
        </g>
    </g>
</svg>