<?xml version="1.0" encoding="UTF-8"?>
<svg width="457px" height="154px" viewBox="0 0 457 154" version="1.1" xmlns="http://www.w3.org/2000/svg" xmlns:xlink="http://www.w3.org/1999/xlink">
    <title>Qlarius Logo</title>
    <g id="Page-1" stroke="none" stroke-width="1" fill="none" fill-rule="evenodd">
        <g id="Qlarius-Logo" transform="translate(0, -5)">
            <g id="qlarius-copy-3" transform="translate(0, 11)" fill="#4A4A4A" fill-rule="nonzero">
                <path d="M60.6509946,148 L60.6509946,109.102394 L60.3399638,109.102394 C57.8517179,112.421543 54.5081374,115.040559 50.3092224,116.959441 C46.1103074,118.878324 41.6262809,119.837766 36.8571429,119.837766 C30.9475588,119.837766 25.7118746,118.696809 21.1500904,116.414894 C16.5883062,114.132979 12.7522604,111.099069 9.64195298,107.313165 C6.53164557,103.527261 4.14707655,99.1449468 2.48824593,94.1662234 C0.82941531,89.1875 0,84.0013298 0,78.6077128 C0,73.2140957 0.855334539,68.0538564 2.56600362,63.1269947 C4.27667269,58.200133 6.71308017,53.8696809 9.87522604,50.1356383 C13.0373719,46.4015957 16.8734177,43.4454787 21.3833635,41.2672872 C25.8933092,39.0890957 30.9475588,38 36.5461121,38 C42.3520193,38 47.3544304,39.1668883 51.5533454,41.5006649 C55.7522604,43.8344415 59.0440024,46.5571809 61.4285714,49.668883 L61.8951175,49.668883 L61.8951175,40.1781915 L86,40.1781915 L86,148 L60.6509946,148 Z M61.5840868,78.7632979 C61.5840868,76.2739362 61.1434599,73.8364362 60.2622061,71.4507979 C59.3809524,69.0651596 58.1368294,66.9388298 56.5298373,65.0718085 C54.9228451,63.2047872 52.978903,61.7007979 50.6980108,60.5598404 C48.4171187,59.418883 45.8251959,58.8484043 42.9222423,58.8484043 C39.9156118,58.8484043 37.2718505,59.418883 34.9909584,60.5598404 C32.7100663,61.7007979 30.7920434,63.1788564 29.2368897,64.994016 C27.681736,66.8091755 26.5153707,68.9095745 25.7377939,71.2952128 C24.960217,73.6808511 24.5714286,76.1183511 24.5714286,78.6077128 C24.5714286,81.0970745 24.960217,83.5605053 25.7377939,85.9980053 C26.5153707,88.4355053 27.681736,90.587766 29.2368897,92.4547872 C30.7920434,94.3218085 32.7100663,95.8257979 34.9909584,96.9667553 C37.2718505,98.1077128 39.9156118,98.6781915 42.9222423,98.6781915 C45.8251959,98.6781915 48.4171187,98.1077128 50.6980108,96.9667553 C52.978903,95.8257979 54.9228451,94.3218085 56.5298373,92.4547872 C58.1368294,90.587766 59.3809524,88.4614362 60.2622061,86.0757979 C61.1434599,83.6901596 61.5840868,81.2526596 61.5840868,78.7632979 Z" id="Shape"></path>
                <polygon id="Path" points="95 118 95 7 120 7 120 118"></polygon>
                <path d="M179.631579,83.3003802 L176.36,83.3003802 C173.555789,83.3003802 170.725614,83.4302915 167.869474,83.6901141 C165.013333,83.9499366 162.468772,84.4435995 160.235789,85.1711027 C158.002807,85.8986058 156.159298,86.9638783 154.705263,88.3669202 C153.251228,89.769962 152.524211,91.6147022 152.524211,93.9011407 C152.524211,95.356147 152.861754,96.6032953 153.536842,97.6425856 C154.21193,98.6818758 155.068772,99.513308 156.107368,100.136882 C157.145965,100.760456 158.340351,101.202155 159.690526,101.461977 C161.040702,101.7218 162.338947,101.851711 163.585263,101.851711 C168.778246,101.851711 172.750877,100.422687 175.503158,97.5646388 C178.255439,94.7065906 179.631579,90.8352345 179.631579,85.9505703 L179.631579,83.3003802 Z M132.738947,50.095057 C137.308772,45.730038 142.631579,42.4562738 148.707368,40.2737643 C154.783158,38.0912548 160.988772,37 167.324211,37 C173.867368,37 179.397895,37.8054499 183.915789,39.4163498 C188.433684,41.0272497 192.094737,43.5215463 194.898947,46.8992395 C197.703158,50.2769328 199.754386,54.5380228 201.052632,59.6825095 C202.350877,64.8269962 203,70.9328264 203,78 L203,117.129278 L179.631579,117.129278 L179.631579,108.86692 L179.164211,108.86692 C177.190877,112.08872 174.204912,114.583016 170.206316,116.34981 C166.207719,118.116603 161.871579,119 157.197895,119 C154.082105,119 150.862456,118.584284 147.538947,117.752852 C144.215439,116.92142 141.177544,115.570342 138.425263,113.69962 C135.672982,111.828897 133.414035,109.334601 131.648421,106.21673 C129.882807,103.098859 129,99.2534854 129,94.6806084 C129,89.0684411 130.53193,84.5475285 133.595789,81.1178707 C136.659649,77.6882129 140.606316,75.0380228 145.435789,73.1673004 C150.265263,71.2965779 155.64,70.0494297 161.56,69.4258555 C167.48,68.8022814 173.244211,68.4904943 178.852632,68.4904943 L178.852632,67.243346 C178.852632,63.3979721 177.502456,60.5659062 174.802105,58.7471483 C172.101754,56.9283904 168.778246,56.0190114 164.831579,56.0190114 C161.196491,56.0190114 157.691228,56.7984791 154.315789,58.3574144 C150.940351,59.9163498 148.058246,61.7870722 145.669474,63.9695817 L132.738947,50.095057 Z" id="Shape"></path>
                <path d="M263.89697,61.8359375 C262.741414,61.5273438 261.612121,61.3216146 260.509091,61.21875 C259.406061,61.1158854 258.329293,61.0644531 257.278788,61.0644531 C253.812121,61.0644531 250.89697,61.6816406 248.533333,62.9160156 C246.169697,64.1503906 244.278788,65.6419271 242.860606,67.390625 C241.442424,69.1393229 240.418182,71.0423177 239.787879,73.0996094 C239.157576,75.156901 238.842424,76.9570312 238.842424,78.5 L238.842424,118 L213,118 L213,41.1601563 L237.89697,41.1601563 L237.89697,52.2695312 L238.212121,52.2695312 C240.208081,48.3606771 243.044444,45.171875 246.721212,42.703125 C250.39798,40.234375 254.652525,39 259.484848,39 C260.535354,39 261.559596,39.0514323 262.557576,39.1542969 C263.555556,39.2571615 264.369697,39.4114583 265,39.6171875 L263.89697,61.8359375 Z" id="Path"></path>
                <polygon id="Shape" points="272 118 272 40 297 40 297 118"></polygon>
                <path d="M361.221996,116.839844 L361.221996,106.193359 L360.90835,106.193359 C359.967413,107.942057 358.738968,109.587891 357.223014,111.130859 C355.70706,112.673828 353.929735,114.011068 351.891039,115.142578 C349.852342,116.274089 347.604549,117.19987 345.147658,117.919922 C342.690767,118.639974 340.103191,119 337.384929,119 C332.157502,119 327.740326,118.074219 324.133401,116.222656 C320.526477,114.371094 317.599117,111.979492 315.351324,109.047852 C313.10353,106.116211 311.483028,102.773112 310.489817,99.0185547 C309.496606,95.2639974 309,91.4322917 309,87.5234375 L309,40 L334.875764,40 L334.875764,81.6601562 C334.875764,83.8203125 335.032587,85.8776042 335.346232,87.8320312 C335.659878,89.7864583 336.261032,91.5351562 337.149695,93.078125 C338.038357,94.6210938 339.214528,95.8297526 340.678208,96.7041016 C342.141887,97.5784505 344.076035,98.015625 346.480652,98.015625 C350.976239,98.015625 354.400204,96.3697917 356.752546,93.078125 C359.104888,89.7864583 360.281059,85.9290365 360.281059,81.5058594 L360.281059,40 L386,40 L386,116.839844 L361.221996,116.839844 Z" id="Path"></path>
                <path d="M442.963303,63.2188679 C440.883792,61.2591195 438.440367,59.608805 435.633028,58.2679245 C432.825688,56.927044 429.862385,56.2566038 426.743119,56.2566038 C424.351682,56.2566038 422.142202,56.7207547 420.114679,57.6490566 C418.087156,58.5773585 417.073394,60.1761006 417.073394,62.445283 C417.073394,64.6113208 418.191131,66.1584906 420.426606,67.0867925 C422.66208,68.0150943 426.275229,69.0465409 431.266055,70.1811321 C434.17737,70.8 437.114679,71.6767296 440.077982,72.8113208 C443.041284,73.9459119 445.718654,75.4415094 448.110092,77.2981132 C450.501529,79.154717 452.425076,81.4238994 453.880734,84.1056604 C455.336391,86.7874214 456.06422,89.9849057 456.06422,93.6981132 C456.06422,98.5459119 455.076453,102.645912 453.100917,105.998113 C451.125382,109.350314 448.551988,112.057862 445.380734,114.120755 C442.20948,116.183648 438.648318,117.679245 434.697248,118.607547 C430.746177,119.535849 426.795107,120 422.844037,120 C416.501529,120 410.288991,118.99434 404.206422,116.983019 C398.123853,114.971698 393.055046,112.006289 389,108.086792 L403.348624,93.0792453 C405.636086,95.554717 408.443425,97.6176101 411.770642,99.2679245 C415.097859,100.918239 418.633028,101.743396 422.376147,101.743396 C424.455657,101.743396 426.509174,101.253459 428.536697,100.273585 C430.56422,99.2937107 431.577982,97.5660377 431.577982,95.090566 C431.577982,92.718239 430.330275,90.9647799 427.834862,89.8301887 C425.33945,88.6955975 421.440367,87.509434 416.137615,86.2716981 C413.434251,85.6528302 410.730887,84.827673 408.027523,83.7962264 C405.324159,82.7647799 402.906728,81.372327 400.775229,79.6188679 C398.643731,77.8654088 396.902141,75.6993711 395.550459,73.1207547 C394.198777,70.5421384 393.522936,67.4477987 393.522936,63.8377358 C393.522936,59.1962264 394.510703,55.2509434 396.486239,52.0018868 C398.461774,48.7528302 401.009174,46.0968553 404.12844,44.0339623 C407.247706,41.9710692 410.704893,40.4496855 414.5,39.4698113 C418.295107,38.4899371 422.06422,38 425.807339,38 C431.629969,38 437.32263,38.9025157 442.885321,40.7075472 C448.448012,42.5125786 453.152905,45.2201258 457,48.8301887 L442.963303,63.2188679 Z" id="Path"></path>
            </g>
            <g id="Group-2" transform="translate(254, 5)">
                <rect id="Rectangle-7" fill="#4C9FDA" x="15" y="22" width="16" height="16"></rect>
                <rect id="Rectangle-7" fill="#F5A622" x="34" y="19" width="16" height="16"></rect>
                <rect id="Rectangle-7" fill="#E26565" x="43" y="0" width="16" height="16"></rect>
                <rect id="Rectangle-7" fill="#43B375" x="21" y="2" width="16" height="16"></rect>
                <rect id="Rectangle-7" fill="#8585AD" x="0" y="5" width="16" height="16"></rect>
            </g>
        </g>
    </g>
</svg>