<?xml version="1.0" encoding="UTF-8"?>
<svg width="734px" height="250px" viewBox="0 0 734 250" version="1.1" xmlns="http://www.w3.org/2000/svg" xmlns:xlink="http://www.w3.org/1999/xlink">
    <title>Group 16</title>
    <g id="Page-1" stroke="none" stroke-width="1" fill="none" fill-rule="evenodd">
        <g id="Group-16" transform="translate(-160, 0)">
            <g id="Group-10-Copy"></g>
            <g id="Group-15" transform="translate(667, 25)">
                <g id="Group-2" fill="#4C9FDA">
                    <path d="M176.587983,58.3997813 L176.587983,191 L0,191 L0,14.1997085 L110.367489,14.1997085 L110.367489,36.2997449 L132.440987,36.2997449 L132.440987,58.3997813 L176.587983,58.3997813 Z" id="Rectangle-1"></path>
                    <rect id="Rectangle-7" x="134.742489" y="31.1836735" width="22.0386266" height="21.9956268"></rect>
                    <rect id="Rectangle-7" x="160.686695" y="27.0072886" width="22.0386266" height="21.9956268"></rect>
                    <rect id="Rectangle-7" x="172.961373" y="0" width="22.0386266" height="21.9956268"></rect>
                    <rect id="Rectangle-7" x="141.995708" y="2.22740525" width="22.0386266" height="21.9956268"></rect>
                    <rect id="Rectangle-7" x="114.098712" y="7.51749271" width="22.0386266" height="21.9956268"></rect>
                </g>
                <g id="Group-12-Copy" transform="translate(87.9993, 102.1971) rotate(-45) translate(-87.9993, -102.1971)translate(44.4642, 58.662)">
                    <line x1="15.9752604" y1="16.5195141" x2="70.920499" y2="70.7250407" id="Line-6" fill="#315A6C"></line>
                    <polygon id="Line-6" fill="#264F6D" fill-rule="nonzero" points="15.8723771 13.4604915 17.4168981 14.9972055 72.1884625 69.4919209 73.7329835 71.028635 70.6745868 74.1328589 69.1300658 72.5961449 14.3585014 18.1014294 12.8139804 16.5647154"></polygon>
                    <polygon id="Line-4" fill="#264F6D" fill-rule="nonzero" points="72.9208387 14.1965103 72.9208387 18.6359518 13.9749207 18.6359518 13.9749207 14.1965103"></polygon>
                    <polygon id="Line-5" fill="#264F6D" fill-rule="nonzero" points="18.461554 13.7881289 18.461554 75.2004033 14.0221125 75.2004033 14.0221125 13.7881289"></polygon>
                    <circle id="Oval" fill="#264F6D" cx="16.1546344" cy="16.1546344" r="16.1546344"></circle>
                    <circle id="Oval-Copy-6" fill="#264F6D" cx="16.1546344" cy="70.9155227" r="16.1546344"></circle>
                    <circle id="Oval-Copy-7" fill="#264F6D" cx="70.9155227" cy="70.9155227" r="16.1546344"></circle>
                    <circle id="Oval-Copy-8" fill="#264F6D" cx="70.9155227" cy="16.1546344" r="16.1546344"></circle>
                </g>
            </g>
            <g id="qlink-copy" transform="translate(194.8, 31)" fill="#4C9FDA" fill-rule="nonzero">
                <path d="M79.8925859,188 L79.8925859,141.356031 L79.483906,141.356031 C76.2144665,145.714008 71.8211573,149.152724 66.3039783,151.672179 C60.7867993,154.191634 54.894997,155.451362 48.6285714,155.451362 C40.8636528,155.451362 33.9842074,153.953307 27.9902351,150.957198 C21.9962628,147.961089 16.955877,143.977626 12.8690778,139.006809 C8.78227848,134.035992 5.6490657,128.282101 3.46943942,121.745136 C1.28981314,115.208171 0.2,108.398833 0.2,101.317121 C0.2,94.2354086 1.3238698,87.4601167 3.5716094,80.9912451 C5.81934901,74.5223735 9.02067511,68.8365759 13.1755877,63.9338521 C17.3305003,59.0311284 22.3708861,55.1498054 28.296745,52.2898833 C34.222604,49.4299611 40.8636528,48 48.2198915,48 C55.8485835,48 62.421519,49.5321012 67.938698,52.5963035 C73.455877,55.6605058 77.7810729,59.2354086 80.9142857,63.3210117 L81.5273056,63.3210117 L81.5273056,50.8599222 L113.2,50.8599222 L113.2,188 L79.8925859,188 Z M81.1186257,101.521401 C81.1186257,98.2529183 80.5396624,95.0525292 79.381736,91.9202335 C78.2238095,88.7879377 76.5890898,85.9961089 74.4775769,83.5447471 C72.3660639,81.0933852 69.8118143,79.118677 66.8148282,77.6206226 C63.8178421,76.1225681 60.412176,75.3735409 56.59783,75.3735409 C52.6472574,75.3735409 49.173478,76.1225681 46.1764919,77.6206226 C43.1795057,79.118677 40.6593128,81.0593385 38.6159132,83.442607 C36.5725136,85.8258755 35.0399638,88.5836576 34.018264,91.7159533 C32.9965642,94.848249 32.4857143,98.0486381 32.4857143,101.317121 C32.4857143,104.585603 32.9965642,107.820039 34.018264,111.020428 C35.0399638,114.220817 36.5725136,117.046693 38.6159132,119.498054 C40.6593128,121.949416 43.1795057,123.924125 46.1764919,125.422179 C49.173478,126.920233 52.6472574,127.669261 56.59783,127.669261 C60.412176,127.669261 63.8178421,126.920233 66.8148282,125.422179 C69.8118143,123.924125 72.3660639,121.949416 74.4775769,119.498054 C76.5890898,117.046693 78.2238095,114.254864 79.381736,111.122568 C80.5396624,107.990272 81.1186257,104.789883 81.1186257,101.521401 Z" id="Shape"></path>
                <polygon id="Path" points="125.2 153 125.2 12 159.2 12 159.2 153"></polygon>
                <path d="M208.2,18.4337349 C208.2,21.0281124 207.694681,23.4518072 206.684043,25.7048193 C205.673404,27.9578313 204.325887,29.9036145 202.641489,31.5421687 C200.957092,33.1807229 198.935816,34.4779116 196.57766,35.4337349 C194.219504,36.3895582 191.760284,36.8674699 189.2,36.8674699 C183.809929,36.8674699 179.295745,35.0582329 175.657447,31.439759 C172.019149,27.8212851 170.2,23.4859438 170.2,18.4337349 C170.2,15.9759036 170.671631,13.6204819 171.614894,11.3674699 C172.558156,9.11445783 173.905674,7.1686747 175.657447,5.53012048 C177.40922,3.89156627 179.430496,2.56024096 181.721277,1.53614458 C184.012057,0.512048193 186.504965,4.54747351e-13 189.2,4.54747351e-13 C191.760284,4.54747351e-13 194.219504,0.477911647 196.57766,1.43373494 C198.935816,2.38955823 200.957092,3.68674699 202.641489,5.3253012 C204.325887,6.96385542 205.673404,8.90963855 206.684043,11.1626506 C207.694681,13.4156627 208.2,15.8393574 208.2,18.4337349 Z M172.625532,153 L172.625532,51 L205.774468,51 L205.774468,153 L172.625532,153 Z" id="Shape"></path>
                <path d="M285.663415,153 L285.663415,97.21875 C285.663415,94.3476563 285.426287,91.6132813 284.952033,89.015625 C284.477778,86.4179688 283.698645,84.1279297 282.614634,82.1455078 C281.530623,80.1630859 280.006233,78.5908203 278.041463,77.4287109 C276.076694,76.2666016 273.603794,75.6855469 270.622764,75.6855469 C267.641734,75.6855469 265.033333,76.2666016 262.797561,77.4287109 C260.561789,78.5908203 258.698645,80.1972656 257.20813,82.2480469 C255.717615,84.2988281 254.599729,86.6572266 253.854472,89.3232422 C253.109214,91.9892578 252.736585,94.7578125 252.736585,97.6289063 L252.736585,153 L219.2,153 L219.2,50.8710938 L251.517073,50.8710938 L251.517073,65.0214844 L251.923577,65.0214844 C253.143089,62.8339844 254.73523,60.6806641 256.7,58.5615234 C258.66477,56.4423828 260.968293,54.6308594 263.610569,53.1269531 C266.252846,51.6230469 269.132249,50.3925781 272.24878,49.4355469 C275.365312,48.4785156 278.685095,48 282.20813,48 C288.983198,48 294.742005,49.2304688 299.484553,51.6914063 C304.2271,54.1523438 308.055014,57.3310547 310.968293,61.2275391 C313.881572,65.1240234 315.981843,69.6015625 317.269106,74.6601563 C318.556369,79.71875 319.2,84.7773438 319.2,89.8359375 L319.2,153 L285.663415,153 Z" id="Path"></path>
                <polygon id="Path" points="440.2 153 398.76367 153 365.492135 104.113636 364.879775 104.113636 364.879775 153 331.2 153 331.2 12 364.879775 12 364.879775 92.4545455 365.492135 92.4545455 397.947191 51.1363636 438.567041 51.1363636 399.37603 97.1590909"></polygon>
            </g>
        </g>
    </g>
</svg>