<?xml version="1.0" encoding="UTF-8"?>
<svg width="1064px" height="1064px" viewBox="0 0 1064 1064" version="1.1" xmlns="http://www.w3.org/2000/svg" xmlns:xlink="http://www.w3.org/1999/xlink">
    <title>Slice 8</title>
    <g id="Page-1" stroke="none" stroke-width="1" fill="none" fill-rule="evenodd">
        <g id="Logo-Strip-Dark" transform="translate(-3968, 29)">
            <g id="Qlink-Dark" transform="translate(4105, 0)">
                <g id="Group-2" transform="translate(61, 0)" fill="#4C9FDA">
                    <path d="M657.450644,218.005466 L657.450644,713 L0,713 L0,53.0072886 L410.906652,53.0072886 L410.906652,135.506378 L493.087983,135.506378 L493.087983,218.005466 L657.450644,218.005466 Z" id="Rectangle-1"></path>
                    <rect id="Rectangle-7" x="501.656652" y="116.408163" width="82.0515021" height="82.1093294"></rect>
                    <rect id="Rectangle-7" x="598.248927" y="100.817784" width="82.0515021" height="82.1093294"></rect>
                    <rect id="Rectangle-7" x="643.948498" y="0" width="82.0515021" height="82.1093294"></rect>
                    <rect id="Rectangle-7" x="528.660944" y="8.3148688" width="82.0515021" height="82.1093294"></rect>
                    <rect id="Rectangle-7" x="424.798283" y="28.0626822" width="82.0515021" height="82.1093294"></rect>
                </g>
                <g id="Group-12-Copy" transform="translate(389.5, 381.5) rotate(-45) translate(-389.5, -381.5)translate(226.9842, 218.9842)">
                    <line x1="59.6353963" y1="61.6670867" x2="264.745109" y2="264.015466" id="Line-6" fill="#315A6C"></line>
                    <polygon id="Line-6" fill="#264F6D" fill-rule="nonzero" points="59.2513345 50.2478032 65.017007 55.9843325 269.478397 259.412249 275.244069 265.148779 263.827122 276.736798 258.06145 271.000269 53.6000602 67.5723516 47.8343877 61.8358223"></polygon>
                    <polygon id="Line-4" fill="#264F6D" fill-rule="nonzero" points="272.212345 52.9953498 272.212345 69.5677153 52.1681596 69.5677153 52.1681596 52.9953498"></polygon>
                    <polygon id="Line-5" fill="#264F6D" fill-rule="nonzero" points="68.9166913 51.4708687 68.9166913 280.721924 52.3443258 280.721924 52.3443258 51.4708687"></polygon>
                    <circle id="Oval" fill="#264F6D" cx="60.3049965" cy="60.3049965" r="60.3049965"></circle>
                    <circle id="Oval-Copy-6" fill="#264F6D" cx="60.3049965" cy="264.726532" r="60.3049965"></circle>
                    <circle id="Oval-Copy-7" fill="#264F6D" cx="264.726532" cy="264.726532" r="60.3049965"></circle>
                    <circle id="Oval-Copy-8" fill="#264F6D" cx="264.726532" cy="60.3049965" r="60.3049965"></circle>
                </g>
                <g id="qlink-copy-3" transform="translate(74, 733)" fill="#545454" fill-rule="nonzero">
                    <path d="M114.249548,269 L114.249548,202.365759 L113.663653,202.365759 C108.976492,208.59144 102.678119,213.503891 94.7685353,217.103113 C86.8589512,220.702335 78.4122966,222.501946 69.4285714,222.501946 C58.2965642,222.501946 48.4339964,220.361868 39.840868,216.081712 C31.2477396,211.801556 24.0216998,206.110895 18.1627486,199.009728 C12.3037975,191.90856 7.8119349,183.688716 4.68716094,174.350195 C1.56238698,165.011673 0,155.284047 0,145.167315 C0,135.050584 1.61121157,125.371595 4.83363472,116.13035 C8.05605787,106.889105 12.6455696,98.766537 18.60217,91.7626459 C24.5587703,84.7587549 31.7848101,79.2140078 40.2802893,75.1284047 C48.7757685,71.0428016 58.2965642,69 68.8426763,69 C79.7793852,69 89.2025316,71.188716 97.1121157,75.5661479 C105.0217,79.9435798 111.222423,85.0505837 115.714286,90.8871595 L116.593128,90.8871595 L116.593128,73.0856031 L162,73.0856031 L162,269 L114.249548,269 Z M116.007233,145.459144 C116.007233,140.789883 115.177215,136.217899 113.517179,131.743191 C111.857143,127.268482 109.513562,123.280156 106.486438,119.77821 C103.459313,116.276265 99.7974684,113.455253 95.5009042,111.315175 C91.20434,109.175097 86.3218807,108.105058 80.8535262,108.105058 C75.1898734,108.105058 70.2097649,109.175097 65.9132007,111.315175 C61.6166365,113.455253 58.0036166,116.227626 55.074141,119.632296 C52.1446655,123.036965 49.9475588,126.976654 48.482821,131.451362 C47.0180832,135.92607 46.2857143,140.498054 46.2857143,145.167315 C46.2857143,149.836576 47.0180832,154.457198 48.482821,159.029183 C49.9475588,163.601167 52.1446655,167.638132 55.074141,171.140078 C58.0036166,174.642023 61.6166365,177.463035 65.9132007,179.603113 C70.2097649,181.743191 75.1898734,182.81323 80.8535262,182.81323 C86.3218807,182.81323 91.20434,181.743191 95.5009042,179.603113 C99.7974684,177.463035 103.459313,174.642023 106.486438,171.140078 C109.513562,167.638132 111.857143,163.649805 113.517179,159.175097 C115.177215,154.700389 116.007233,150.128405 116.007233,145.459144 Z" id="Shape"></path>
                    <polygon id="Path" points="180 218 180 17 229 17 229 218"></polygon>
                    <path d="M299,26.2650602 C299,29.9616243 298.268617,33.4149933 296.805851,36.6251673 C295.343085,39.8353414 293.39273,42.6077644 290.954787,44.9424364 C288.516844,47.2771084 285.591312,49.1253905 282.178191,50.4872825 C278.765071,51.8491745 275.205674,52.5301205 271.5,52.5301205 C263.698582,52.5301205 257.164894,49.9522535 251.898936,44.7965194 C246.632979,39.6407854 244,33.4636323 244,26.2650602 C244,22.7630522 244.682624,19.4069612 246.047872,16.1967871 C247.413121,12.9866131 249.363475,10.2141901 251.898936,7.87951807 C254.434397,5.54484605 257.359929,3.64792503 260.675532,2.18875502 C263.991135,0.729585007 267.599291,0 271.5,0 C275.205674,0 278.765071,0.680946006 282.178191,2.04283802 C285.591312,3.40473003 288.516844,5.25301205 290.954787,7.58768407 C293.39273,9.92235609 295.343085,12.6947791 296.805851,15.9049531 C298.268617,19.1151272 299,22.5684962 299,26.2650602 Z M247.510638,218 L247.510638,72.6666667 L295.489362,72.6666667 L295.489362,218 L247.510638,218 Z" id="Shape"></path>
                    <path d="M409.707317,219 L409.707317,139.3125 C409.707317,135.210937 409.365854,131.304687 408.682927,127.59375 C408,123.882812 406.878049,120.611328 405.317073,117.779297 C403.756098,114.947266 401.560976,112.701172 398.731707,111.041016 C395.902439,109.380859 392.341463,108.550781 388.04878,108.550781 C383.756098,108.550781 380,109.380859 376.780488,111.041016 C373.560976,112.701172 370.878049,114.996094 368.731707,117.925781 C366.585366,120.855469 364.97561,124.224609 363.902439,128.033203 C362.829268,131.841797 362.292683,135.796875 362.292683,139.898438 L362.292683,219 L314,219 L314,73.1015625 L360.536585,73.1015625 L360.536585,93.3164063 L361.121951,93.3164063 C362.878049,90.1914062 365.170732,87.1152344 368,84.0878906 C370.829268,81.0605469 374.146341,78.4726562 377.95122,76.3242188 C381.756098,74.1757812 385.902439,72.4179688 390.390244,71.0507812 C394.878049,69.6835937 399.658537,69 404.731707,69 C414.487805,69 422.780488,70.7578125 429.609756,74.2734375 C436.439024,77.7890625 441.95122,82.3300781 446.146341,87.8964844 C450.341463,93.4628906 453.365854,99.859375 455.219512,107.085938 C457.073171,114.3125 458,121.539062 458,128.765625 L458,219 L409.707317,219 Z" id="Path"></path>
                    <polygon id="Path" points="631 218 571.696629 218 524.078652 148.310928 523.202247 148.310928 523.202247 218 475 218 475 17 523.202247 17 523.202247 131.690522 524.078652 131.690522 570.52809 72.7901354 628.662921 72.7901354 572.573034 138.397002"></polygon>
                </g>
            </g>
        </g>
    </g>
</svg>