<?xml version="1.0" encoding="UTF-8"?>
<svg width="894px" height="250px" viewBox="0 0 894 250" version="1.1" xmlns="http://www.w3.org/2000/svg" xmlns:xlink="http://www.w3.org/1999/xlink">
    <title>Slice Copy</title>
    <g id="Page-1" stroke="none" stroke-width="1" fill="none" fill-rule="evenodd">
        <g id="Group-16">
            <g id="Group-10-Copy"></g>
            <g id="Qlinker-Copy-2" transform="translate(28, 54)" fill="#4C9FDA" fill-rule="nonzero">
                <path d="M69.6705882,140 C59.3490196,140 49.8875817,138.514443 41.2862745,135.543329 C32.6849673,132.572215 25.3431373,128.208391 19.2607843,122.451857 C13.1784314,116.695323 8.44771242,109.638927 5.06862745,101.282669 C1.68954248,92.9264099 0,83.3631362 0,72.5928473 C0,62.565337 1.78169935,53.4044017 5.34509804,45.1100413 C8.90849673,36.8156809 13.8542484,29.6973865 20.1823529,23.7551582 C26.5104575,17.8129298 34.0058824,13.2015131 42.6686275,9.92090784 C51.3313725,6.64030261 60.7006536,5 70.7764706,5 C80.8522876,5 90.1908497,6.64030261 98.7921569,9.92090784 C107.393464,13.2015131 114.827451,17.7819807 121.094118,23.6623109 C127.360784,29.542641 132.245098,36.5990371 135.747059,44.8314993 C139.24902,53.0639615 141,62.1320495 141,72.0357634 C141,77.1114168 140.447059,81.84663 139.341176,86.241403 C138.235294,90.6361761 136.760784,94.6286107 134.917647,98.218707 C133.07451,101.808803 130.985621,104.996561 128.65098,107.781981 C126.31634,110.5674 123.981699,112.888583 121.647059,114.74553 L121.647059,115.302613 L140.163216,114.74553 L140.163216,140 L69.6705882,140 Z M107.639216,72.9642366 C107.639216,67.2696011 106.748366,62.0082531 104.966667,57.1801926 C103.184967,52.352132 100.666013,48.2049519 97.4098039,44.738652 C94.1535948,41.2723521 90.2522876,38.5797799 85.7058824,36.6609354 C81.1594771,34.7420908 76.1830065,33.7826685 70.7764706,33.7826685 C65.4928105,33.7826685 60.6084967,34.7420908 56.1235294,36.6609354 C51.6385621,38.5797799 47.7372549,41.2723521 44.4196078,44.738652 C41.1019608,48.2049519 38.5215686,52.352132 36.6784314,57.1801926 C34.8352941,62.0082531 33.9137255,67.2696011 33.9137255,72.9642366 C33.9137255,78.9064649 34.8045752,84.3225585 36.5862745,89.2125172 C38.3679739,94.1024759 40.8869281,98.3115543 44.1431373,101.839752 C47.3993464,105.36795 51.2699346,108.091472 55.754902,110.010316 C60.2398693,111.929161 65.1856209,112.888583 70.5921569,112.888583 C75.875817,112.888583 80.7908497,111.929161 85.3372549,110.010316 C89.8836601,108.091472 93.8156863,105.36795 97.1333333,101.839752 C100.45098,98.3115543 103.031373,94.1024759 104.87451,89.2125172 C106.717647,84.3225585 107.639216,78.9064649 107.639216,72.9642366 Z" id="Shape"></path>
                <polygon id="Path" points="152 140 152 0 183 0 183 140"></polygon>
                <path d="M228,18.626506 C228,20.9665328 227.534574,23.1526104 226.603723,25.184739 C225.672872,27.2168675 224.431738,28.9718876 222.880319,30.4497992 C221.328901,31.9277108 219.467199,33.0977242 217.295213,33.9598394 C215.123227,34.8219545 212.858156,35.253012 210.5,35.253012 C205.535461,35.253012 201.37766,33.6211513 198.026596,30.3574297 C194.675532,27.0937082 193,23.1834003 193,18.626506 C193,16.4096386 193.434397,14.2851406 194.303191,12.253012 C195.171986,10.2208835 196.413121,8.46586345 198.026596,6.98795181 C199.640071,5.51004016 201.501773,4.30923695 203.611702,3.38554217 C205.721631,2.46184739 208.01773,2 210.5,2 C212.858156,2 215.123227,2.43105756 217.295213,3.29317269 C219.467199,4.15528782 221.328901,5.3253012 222.880319,6.80321285 C224.431738,8.2811245 225.672872,10.0361446 226.603723,12.0682731 C227.534574,14.1004016 228,16.2864793 228,18.626506 Z M195.234043,140 L195.234043,48 L225.765957,48 L225.765957,140 L195.234043,140 Z" id="Shape"></path>
                <path d="M297.481707,140 L297.481707,90.0625 C297.481707,87.4921875 297.265921,85.0442708 296.83435,82.71875 C296.402778,80.3932292 295.693767,78.343099 294.707317,76.5683594 C293.720867,74.7936198 292.333672,73.3860677 290.545732,72.3457031 C288.757791,71.3053385 286.507453,70.7851562 283.794715,70.7851562 C281.081978,70.7851562 278.708333,71.3053385 276.67378,72.3457031 C274.639228,73.3860677 272.943767,74.8242188 271.587398,76.6601563 C270.23103,78.4960938 269.213753,80.6074219 268.535569,82.9941406 C267.857385,85.3808594 267.518293,87.859375 267.518293,90.4296875 L267.518293,140 L237,140 L237,48.5703125 L266.408537,48.5703125 L266.408537,61.2382813 L266.778455,61.2382813 C267.888211,59.2799479 269.33706,57.3522135 271.125,55.4550781 C272.91294,53.5579427 275.009146,51.9361979 277.413618,50.5898437 C279.818089,49.2434896 282.438347,48.1419271 285.27439,47.2851563 C288.110434,46.4283854 291.131436,46 294.337398,46 C300.50271,46 305.743225,47.1015625 310.058943,49.3046875 C314.374661,51.5078125 317.858062,54.3535156 320.509146,57.8417969 C323.16023,61.3300781 325.071477,65.3385417 326.242886,69.8671875 C327.414295,74.3958333 328,78.9244792 328,83.453125 L328,140 L297.481707,140 Z" id="Path"></path>
                <polygon id="Path" points="438 140 400.365169 140 370.146067 95.7407407 369.589888 95.7407407 369.589888 140 339 140 339 0 369.589888 0 369.589888 85.1851852 370.146067 85.1851852 399.623596 47.7777778 436.516854 47.7777778 400.921348 89.4444444"></polygon>
                <path d="M496.069364,83.4603774 C496.069364,78.6528302 494.558767,74.5232704 491.537572,71.0716981 C488.516378,67.6201258 483.984586,65.8943396 477.942197,65.8943396 C474.982659,65.8943396 472.26975,66.3566038 469.803468,67.2811321 C467.337187,68.2056604 465.179191,69.4691824 463.32948,71.0716981 C461.479769,72.6742138 460,74.5540881 458.890173,76.7113208 C457.780347,78.8685535 457.163776,81.118239 457.040462,83.4603774 L496.069364,83.4603774 Z M524,95.109434 C524,96.3421384 524,97.5748428 524,98.8075472 C524,100.040252 523.938343,101.211321 523.815029,102.320755 L457.040462,102.320755 C457.287091,104.909434 458.057803,107.251572 459.352601,109.34717 C460.647399,111.442767 462.312139,113.261006 464.346821,114.801887 C466.381503,116.342767 468.662813,117.544654 471.190751,118.407547 C473.71869,119.27044 476.339114,119.701887 479.052023,119.701887 C483.861272,119.701887 487.930636,118.808176 491.260116,117.020755 C494.589595,115.233333 497.302505,112.922013 499.398844,110.086792 L520.485549,123.4 C516.169557,129.686792 510.466281,134.525157 503.375723,137.915094 C496.285164,141.305031 488.05395,143 478.682081,143 C471.776493,143 465.240848,141.921384 459.075145,139.764151 C452.909441,137.606918 447.514451,134.463522 442.890173,130.333962 C438.265896,126.204403 434.628131,121.119497 431.976879,115.079245 C429.325626,109.038994 428,102.135849 428,94.3698113 C428,86.8503145 429.294798,80.0396226 431.884393,73.9377358 C434.473988,67.8358491 437.988439,62.6584906 442.427746,58.4056604 C446.867052,54.1528302 452.1079,50.8553459 458.150289,48.5132075 C464.192678,46.1710692 470.728324,45 477.757225,45 C484.539499,45 490.766859,46.1402516 496.439306,48.4207547 C502.111753,50.7012579 506.982659,53.9987421 511.052023,58.3132075 C515.121387,62.627673 518.296724,67.8666667 520.578035,74.0301887 C522.859345,80.1937107 524,87.2201258 524,95.109434 Z" id="Shape"></path>
                <path d="M590.706061,73.171875 C589.350505,72.8046875 588.025758,72.5598958 586.731818,72.4375 C585.437879,72.3151042 584.174747,72.2539063 582.942424,72.2539063 C578.875758,72.2539063 575.456061,72.9882813 572.683333,74.4570312 C569.910606,75.9257813 567.692424,77.7005208 566.028788,79.78125 C564.365152,81.8619792 563.163636,84.1263021 562.424242,86.5742188 C561.684848,89.0221354 561.315152,91.1640625 561.315152,93 L561.315152,140 L531,140 L531,48.5703125 L560.206061,48.5703125 L560.206061,61.7890625 L560.575758,61.7890625 C562.917172,57.1380208 566.244444,53.34375 570.557576,50.40625 C574.870707,47.46875 579.861616,46 585.530303,46 C586.762626,46 587.964141,46.0611979 589.134848,46.1835938 C590.305556,46.3059896 591.260606,46.4895833 592,46.734375 L590.706061,73.171875 Z" id="Path"></path>
            </g>
            <g id="Group-15" transform="translate(667, 25)">
                <g id="Group-2" fill="#4C9FDA">
                    <path d="M176.587983,58.3997813 L176.587983,191 L0,191 L0,14.1997085 L110.367489,14.1997085 L110.367489,36.2997449 L132.440987,36.2997449 L132.440987,58.3997813 L176.587983,58.3997813 Z" id="Rectangle-1"></path>
                    <rect id="Rectangle-7" x="134.742489" y="31.1836735" width="22.0386266" height="21.9956268"></rect>
                    <rect id="Rectangle-7" x="160.686695" y="27.0072886" width="22.0386266" height="21.9956268"></rect>
                    <rect id="Rectangle-7" x="172.961373" y="0" width="22.0386266" height="21.9956268"></rect>
                    <rect id="Rectangle-7" x="141.995708" y="2.22740525" width="22.0386266" height="21.9956268"></rect>
                    <rect id="Rectangle-7" x="114.098712" y="7.51749271" width="22.0386266" height="21.9956268"></rect>
                </g>
                <g id="Group-12-Copy" transform="translate(87.9993, 102.1971) rotate(-45) translate(-87.9993, -102.1971)translate(44.4642, 58.662)">
                    <line x1="15.9752604" y1="16.5195141" x2="70.920499" y2="70.7250407" id="Line-6" fill="#315A6C"></line>
                    <polygon id="Line-6" fill="#264F6D" fill-rule="nonzero" points="15.8723771 13.4604915 17.4168981 14.9972055 72.1884625 69.4919209 73.7329835 71.028635 70.6745868 74.1328589 69.1300658 72.5961449 14.3585014 18.1014294 12.8139804 16.5647154"></polygon>
                    <polygon id="Line-4" fill="#264F6D" fill-rule="nonzero" points="72.9208387 14.1965103 72.9208387 18.6359518 13.9749207 18.6359518 13.9749207 14.1965103"></polygon>
                    <polygon id="Line-5" fill="#264F6D" fill-rule="nonzero" points="18.461554 13.7881289 18.461554 75.2004033 14.0221125 75.2004033 14.0221125 13.7881289"></polygon>
                    <circle id="Oval" fill="#264F6D" cx="16.1546344" cy="16.1546344" r="16.1546344"></circle>
                    <circle id="Oval-Copy-6" fill="#264F6D" cx="16.1546344" cy="70.9155227" r="16.1546344"></circle>
                    <circle id="Oval-Copy-7" fill="#264F6D" cx="70.9155227" cy="70.9155227" r="16.1546344"></circle>
                    <circle id="Oval-Copy-8" fill="#264F6D" cx="70.9155227" cy="16.1546344" r="16.1546344"></circle>
                </g>
            </g>
        </g>
    </g>
</svg>