<?xml version="1.0" encoding="UTF-8"?>
<svg width="1064px" height="1064px" viewBox="0 0 1064 1064" version="1.1" xmlns="http://www.w3.org/2000/svg" xmlns:xlink="http://www.w3.org/1999/xlink">
    <title>Slice 8</title>
    <g id="Page-1" stroke="none" stroke-width="1" fill="none" fill-rule="evenodd">
        <g id="Logo-Strip-Dark" transform="translate(-1237, 39)">
            <g id="Sponster" transform="translate(1346, 0)">
                <g id="Group-5-Copy-2" transform="translate(-3, 26)">
                    <path d="M94.6399628,792.336367 C91.4268616,788.212645 87.2279855,784.935807 82.0432085,782.505756 C76.8584315,780.075705 71.8562921,778.860698 67.0366403,778.860698 C64.5537894,778.860698 62.0344637,779.081608 59.4785877,779.523436 C56.9227118,779.965263 54.6224579,780.812086 52.5777571,782.063931 C50.5330563,783.315775 48.8169939,784.935785 47.4295184,786.924008 C46.0420429,788.912232 45.3483155,791.452701 45.3483155,794.545493 C45.3483155,797.196458 45.895995,799.405562 46.9913704,801.172872 C48.0867458,802.940182 49.6932723,804.486554 51.8109982,805.812037 C53.928724,807.137519 56.4480496,808.352526 59.3690507,809.457095 C62.2900518,810.561663 65.5761288,811.703034 69.2273802,812.88124 C74.4851822,814.64855 79.9619771,816.599925 85.6579293,818.735425 C91.3538815,820.870924 96.5385807,823.705941 101.212182,827.24056 C105.885784,830.77518 109.756053,835.156569 112.823104,840.384861 C115.890155,845.613152 117.423658,852.130009 117.423658,859.935627 C117.423658,868.919451 115.780619,876.688134 112.494493,883.241908 C109.208367,889.795681 104.790419,895.207986 99.2405165,899.478985 C93.6906144,903.749983 87.3375323,906.916366 80.1810796,908.978227 C73.0246269,911.040088 65.6492097,912.071004 58.0546068,912.071004 C46.9548026,912.071004 36.2202845,910.119628 25.8507306,906.216819 C15.4811766,902.31401 6.86435261,896.754432 0,889.537917 L24.5362867,864.353879 C28.3335881,869.066705 33.3357275,873.006274 39.5428548,876.172704 C45.7499822,879.339134 51.9205045,880.922325 58.0546068,880.922325 C60.8295579,880.922325 63.5314434,880.627778 66.1603444,880.038675 C68.7892454,879.449572 71.0894992,878.492293 73.061175,877.166811 C75.0328507,875.841328 76.6028653,874.074045 77.7712657,871.864908 C78.9396662,869.655771 79.5238576,867.004846 79.5238576,863.912054 C79.5238576,860.966538 78.7936183,858.462887 77.3331177,856.401025 C75.8726172,854.339164 73.7914351,852.461425 71.0895091,850.767754 C68.3875831,849.074082 65.0284822,847.527709 61.0121056,846.128589 C56.9957291,844.729468 52.4317333,843.219914 47.3199814,841.59988 C42.3542795,839.979846 37.498188,838.065289 32.7515612,835.856152 C28.0049344,833.647015 23.7695463,830.811998 20.0452699,827.351017 C16.3209935,823.890035 13.3270123,819.692737 11.0632364,814.758998 C8.79946053,809.825258 7.66758958,803.823859 7.66758958,796.75462 C7.66758958,788.065347 9.42016396,780.62803 12.9253653,774.442446 C16.4305666,768.256862 21.0310744,763.175922 26.7270265,759.199475 C32.4229787,755.223028 38.8490847,752.314375 46.0055375,750.473427 C53.1619902,748.63248 60.3913595,747.71202 67.6938623,747.71202 C76.4568656,747.71202 85.4022973,749.332029 94.5304258,752.572097 C103.658554,755.812165 111.654675,760.598557 118.519027,766.931417 L94.6399628,792.336367 Z M244.167019,853.246474 C244.167019,860.906606 243.000317,868.272008 240.666878,875.3429 C238.333439,882.413792 234.942711,888.637556 230.494592,894.01438 C226.046474,899.391204 220.614018,903.699964 214.19706,906.94079 C207.780102,910.181615 200.488214,911.802004 192.321178,911.802004 C185.61254,911.802004 179.268598,910.439404 173.28916,907.714165 C167.309722,904.988925 162.642914,901.269397 159.288595,896.555469 L158.851077,896.555469 L158.851077,950 L122.97463,950 L122.97463,798.6683 L157.101007,798.6683 L157.101007,812.14712 L157.757283,812.14712 C161.111602,807.727813 165.741951,803.860977 171.648469,800.546497 C177.554986,797.232016 184.518739,795.574801 192.539936,795.574801 C200.415293,795.574801 207.561344,797.121535 213.978301,800.21505 C220.395259,803.308565 225.827715,807.506844 230.275834,812.810013 C234.723952,818.113182 238.151139,824.263293 240.557498,831.260529 C242.963858,838.257766 244.167019,845.586341 244.167019,853.246474 Z M209.413319,852.697591 C209.413319,849.141729 208.868124,845.660001 207.777718,842.252301 C206.687312,838.8446 205.088074,835.844387 202.979956,833.251572 C200.871837,830.658757 198.218556,828.547496 195.020031,826.917726 C191.821507,825.287956 188.114182,824.473084 183.897945,824.473084 C179.827095,824.473084 176.192463,825.287956 172.993939,826.917726 C169.795414,828.547496 167.06944,830.695796 164.815934,833.362692 C162.562428,836.029588 160.817804,839.06684 159.582011,842.474541 C158.346217,845.882241 157.72833,849.36397 157.72833,852.919831 C157.72833,856.475692 158.346217,859.957421 159.582011,863.365121 C160.817804,866.772821 162.562428,869.810074 164.815934,872.47697 C167.06944,875.143865 169.795414,877.292166 172.993939,878.921936 C176.192463,880.551705 179.827095,881.366578 183.897945,881.366578 C188.114182,881.366578 191.821507,880.551705 195.020031,878.921936 C198.218556,877.292166 200.871837,875.143865 202.979956,872.47697 C205.088074,869.810074 206.687312,866.735781 207.777718,863.254001 C208.868124,859.77222 209.413319,856.253452 209.413319,852.697591 Z M368.03277,852.92835 C368.03277,861.93639 366.425653,870.095189 363.211373,877.404992 C359.997092,884.714794 355.614047,890.916958 350.062108,896.011669 C344.510168,901.10638 338.081703,905.056568 330.77652,907.86235 C323.471336,910.668133 315.654907,912.071004 307.326998,912.071004 C299.145192,912.071004 291.365289,910.668133 283.987053,907.86235 C276.608818,905.056568 270.180353,901.10638 264.701465,896.011669 C259.222577,890.916958 254.876058,884.714794 251.661778,877.404992 C248.447497,870.095189 246.840381,861.93639 246.840381,852.92835 C246.840381,843.920311 248.447497,835.79843 251.661778,828.562463 C254.876058,821.326497 259.222577,815.198168 264.701465,810.177294 C270.180353,805.156419 276.608818,801.316985 283.987053,798.658874 C291.365289,796.000764 299.145192,794.671729 307.326998,794.671729 C315.654907,794.671729 323.471336,796.000764 330.77652,798.658874 C338.081703,801.316985 344.510168,805.156419 350.062108,810.177294 C355.614047,815.198168 359.997092,821.326497 363.211373,828.562463 C366.425653,835.79843 368.03277,843.920311 368.03277,852.92835 Z M333.27907,852.697591 C333.27907,849.141729 332.695064,845.660001 331.527036,842.252301 C330.359008,838.8446 328.679993,835.844387 326.48994,833.251572 C324.299887,830.658757 321.598862,828.547496 318.386785,826.917726 C315.174707,825.287956 311.451673,824.473084 307.217571,824.473084 C302.983469,824.473084 299.260435,825.287956 296.048357,826.917726 C292.836279,828.547496 290.171755,830.658757 288.054704,833.251572 C285.937653,835.844387 284.331638,838.8446 283.236612,842.252301 C282.141585,845.660001 281.59408,849.141729 281.59408,852.697591 C281.59408,856.253452 282.141585,859.73518 283.236612,863.142881 C284.331638,866.550581 285.974153,869.624873 288.164206,872.365849 C290.354259,875.106826 293.055284,877.292166 296.267361,878.921936 C299.479439,880.551705 303.202473,881.366578 307.436575,881.366578 C311.670677,881.366578 315.393711,880.551705 318.605789,878.921936 C321.817866,877.292166 324.518891,875.106826 326.708944,872.365849 C328.898997,869.624873 330.541512,866.550581 331.636538,863.142881 C332.731565,859.73518 333.27907,856.253452 333.27907,852.697591 Z M443.261815,908.458718 L443.261815,848.00938 C443.261815,844.898002 443.006133,841.934829 442.494763,839.119772 C441.983392,836.304715 441.143296,833.823058 439.97445,831.674725 C438.805603,829.526392 437.161937,827.822567 435.043402,826.5632 C432.924867,825.303832 430.258475,824.674158 427.044146,824.674158 C423.829817,824.674158 421.017322,825.303832 418.606575,826.5632 C416.195829,827.822567 414.186903,829.563432 412.579739,831.785845 C410.972574,834.008258 409.767219,836.563995 408.963637,839.453132 C408.160055,842.342269 407.75827,845.342482 407.75827,848.453861 L407.75827,908.458718 L371.597252,908.458718 L371.597252,797.783092 L406.443324,797.783092 L406.443324,813.117667 L406.881639,813.117667 C408.196592,810.747093 409.91331,808.413594 412.031845,806.1171 C414.150379,803.820607 416.634142,801.857504 419.483206,800.227735 C422.33227,798.597965 425.436973,797.264537 428.797408,796.227411 C432.157842,795.190285 435.737382,794.671729 439.536134,794.671729 C446.841427,794.671729 453.050833,796.005157 458.164537,798.672053 C463.278242,801.338949 467.405671,804.783638 470.546947,809.006223 C473.688223,813.228808 475.952829,818.081004 477.340835,823.562957 C478.728841,829.04491 479.422833,834.52678 479.422833,840.008733 L479.422833,908.458718 L443.261815,908.458718 Z M555.98153,830.777544 C553.065617,827.971761 549.63947,825.609032 545.702987,823.689286 C541.766503,821.76954 537.611389,820.809681 533.237519,820.809681 C529.884218,820.809681 526.786107,821.474198 523.943091,822.803254 C521.100075,824.132309 519.678589,826.421202 519.678589,829.670004 C519.678589,832.771132 521.245869,834.98619 524.380476,836.315245 C527.515083,837.644301 532.581406,839.121006 539.579599,840.745407 C543.661878,841.631443 547.780544,842.886643 551.93572,844.511044 C556.090897,846.135444 559.845079,848.276668 563.19838,850.934778 C566.55168,853.592888 569.24886,856.84164 571.289999,860.681133 C573.331139,864.520625 574.351693,869.098412 574.351693,874.414633 C574.351693,881.355253 572.966655,887.225158 570.196537,892.024524 C567.42642,896.823889 563.818031,900.700242 559.371263,903.653697 C554.924495,906.607153 549.931068,908.748376 544.390832,910.077431 C538.850596,911.406486 533.310444,912.071004 527.770208,912.071004 C518.876672,912.071004 510.165511,910.631216 501.636464,907.751596 C493.107417,904.871977 485.999985,900.626448 480.313953,895.014883 L500.433656,873.5286 C503.641161,877.072747 507.577585,880.026158 512.243047,882.388923 C516.908508,884.751687 521.865487,885.933052 527.114131,885.933052 C530.030044,885.933052 532.909466,885.231617 535.752481,883.828725 C538.595497,882.425834 540.016984,879.952352 540.016984,876.408205 C540.016984,873.011731 538.267462,870.501332 534.768366,868.876931 C531.269269,867.25253 525.802014,865.554319 518.366434,863.782246 C514.575747,862.896209 510.785116,861.714844 506.994428,860.238116 C503.203741,858.761389 499.814042,856.767836 496.825231,854.257399 C493.83642,851.746961 491.394379,848.64588 489.499035,844.95406 C487.603691,841.26224 486.656034,836.832123 486.656034,831.663576 C486.656034,825.018301 488.041072,819.369902 490.81119,814.718209 C493.581307,810.066517 497.153248,806.263999 501.527118,803.310544 C505.900988,800.357088 510.748622,798.178947 516.070164,796.776056 C521.391706,795.373164 526.67672,794.671729 531.925364,794.671729 C540.089922,794.671729 548.072115,795.963847 555.872184,798.54812 C563.672253,801.132394 570.269408,805.008746 575.663848,810.177294 L555.98153,830.777544 Z M627.491117,825.567758 L627.491117,867.593683 C627.491117,872.754788 628.479577,876.625558 630.456526,879.20611 C632.433476,881.786662 635.98461,883.076919 641.110034,883.076919 C642.867323,883.076919 644.734414,882.929461 646.711363,882.634541 C648.688313,882.339621 650.335746,881.897247 651.653712,881.307406 L652.093032,907.850096 C649.60354,908.734857 646.455112,909.509011 642.647654,910.172581 C638.840196,910.836152 635.032795,911.167932 631.225336,911.167932 C623.903301,911.167932 617.752884,910.24632 612.7739,908.403069 C607.794916,906.559817 603.804467,903.905575 600.802432,900.440262 C597.800398,896.974949 595.64043,892.846127 594.322463,888.053673 C593.004497,883.261219 592.345524,877.91587 592.345524,872.017465 L592.345524,825.567758 L574.772727,825.567758 L574.772727,798.361501 L592.125864,798.361501 L592.125864,769.385732 L627.491117,769.385732 L627.491117,798.361501 L653.191332,798.361501 L653.191332,825.567758 L627.491117,825.567758 Z M729.827696,840.728368 C729.827696,835.043743 728.03421,830.160869 724.447186,826.0796 C720.860162,821.998331 715.479706,819.957727 708.305657,819.957727 C704.791837,819.957727 701.570884,820.504317 698.642701,821.597514 C695.714518,822.690711 693.152396,824.184725 690.956259,826.0796 C688.760121,827.974475 687.003238,830.197276 685.685556,832.748069 C684.367873,835.298862 683.635838,837.958935 683.489429,840.728368 L729.827696,840.728368 Z M762.799154,854.700415 L762.799154,859.130576 C762.799154,860.607304 762.726469,862.010174 762.581096,863.339229 L683.862017,863.339229 C684.152763,866.440358 685.061331,869.246099 686.587747,871.756536 C688.114163,874.266973 690.076669,876.445114 692.475324,878.291024 C694.873978,880.136934 697.563338,881.576722 700.543484,882.610431 C703.52363,883.644141 706.61276,884.160987 709.810966,884.160987 C715.480512,884.160987 720.277749,883.090376 724.202819,880.949121 C728.12789,878.807865 731.326048,876.039042 733.797388,872.642568 L758.656045,888.591149 C753.56799,896.122461 746.844591,901.91853 738.485644,905.979532 C730.126697,910.040533 720.423196,912.071004 709.374849,912.071004 C701.233962,912.071004 693.529309,910.778886 686.260659,908.194613 C678.99201,905.610339 672.632037,901.844739 667.18055,896.897701 C661.729063,891.950663 657.440624,885.859252 654.315105,878.623286 C651.189586,871.38732 649.62685,863.117768 649.62685,853.814383 C649.62685,844.806343 651.153243,836.647544 654.206076,829.337741 C657.258909,822.027939 661.401977,815.825775 666.635404,810.731064 C671.868832,805.636353 678.047091,801.686165 685.170367,798.880383 C692.293644,796.0746 699.998297,794.671729 708.284557,794.671729 C716.280071,794.671729 723.621297,796.037682 730.308454,798.769628 C736.995612,801.501575 742.737758,805.451763 747.535067,810.62031 C752.332376,815.788857 756.075674,822.064856 758.765074,829.448495 C761.454474,836.832135 762.799154,845.249357 762.799154,854.700415 Z M841.468893,827.563281 C839.864868,827.118798 838.297322,826.822481 836.766207,826.67432 C835.235092,826.526159 833.740455,826.45208 832.282251,826.45208 C827.470176,826.45208 823.423719,827.341032 820.142759,829.118962 C816.861799,830.896893 814.23707,833.045193 812.268494,835.563928 C810.299918,838.082663 808.87819,840.823599 808.003267,843.786816 C807.128345,846.750034 806.69089,849.342811 806.69089,851.565224 L806.69089,908.458718 L770.819239,908.458718 L770.819239,797.783092 L805.378512,797.783092 L805.378512,813.784388 L805.815972,813.784388 C808.58656,808.154274 812.523653,803.561356 817.627369,800.005494 C822.731085,796.449633 828.636724,794.671729 835.344465,794.671729 C836.802669,794.671729 838.224397,794.745809 839.609692,794.893969 C840.994986,795.04213 842.125077,795.264368 843,795.56069 L841.468893,827.563281 Z" id="Sponster-Copy" fill="#545454"></path>
                    <g id="Group-4" transform="translate(97, 0)">
                        <g id="Group-Copy" transform="translate(0.8431, 0)" fill="#43B375">
                            <path d="M666.781395,181.756941 L666.781395,384.208979 C666.781395,570.560934 517.517296,721.629042 333.390698,721.629042 L0,721.629042 L0,384.208979 C0,197.857024 149.2641,46.7889154 333.390698,46.7889154 L466.746977,46.7889154 L466.746977,114.272928 L533.425116,114.272928 L533.425116,181.756941 L666.781395,181.756941 Z" id="Oval-2"></path>
                            <rect id="Rectangle-2" x="659.650044" y="0" width="66.8564233" height="67.4840127"></rect>
                            <rect id="Rectangle-2" x="619.53619" y="86.3795362" width="66.8564233" height="67.4840127"></rect>
                            <rect id="Rectangle-2" x="561.593956" y="8.09808152" width="66.8564233" height="67.4840127"></rect>
                            <rect id="Rectangle-2" x="541.09132" y="98.0767651" width="66.8564233" height="67.4840127"></rect>
                            <rect id="Rectangle-2" x="475.126315" y="23.3944577" width="66.8564233" height="67.4840127"></rect>
                        </g>
                        <g id="Group-13" transform="translate(87, 135)">
                            <circle id="Oval" fill="#A1D9BA" cx="247" cy="247" r="247"></circle>
                            <polygon id="Triangle-1" fill="#225A3B" points="155.978261 359.804832 155.978261 134.907631 379 247.356231"></polygon>
                        </g>
                    </g>
                </g>
            </g>
        </g>
    </g>
</svg>