<?xml version="1.0" encoding="UTF-8"?>
<svg width="1000px" height="250px" viewBox="0 0 1000 250" version="1.1" xmlns="http://www.w3.org/2000/svg" xmlns:xlink="http://www.w3.org/1999/xlink">
    <title>Slice</title>
    <g id="Page-1" stroke="none" stroke-width="1" fill="none" fill-rule="evenodd">
        <g id="Group-5-Copy-2" transform="translate(25, 25)">
            <path d="M82.2375448,54.2369053 C79.4455154,50.6598402 75.7968954,47.8173936 71.2915753,45.7094802 C66.7862551,43.6015668 62.4396383,42.547626 58.2515942,42.547626 C56.094117,42.547626 53.904945,42.7392516 51.6840125,43.1225085 C49.4630801,43.5057655 47.4642708,44.2403304 45.6875249,45.3262252 C43.9107789,46.4121199 42.4196038,47.8173744 41.2139547,49.5420308 C40.0083057,51.2666872 39.4054902,53.4703818 39.4054902,56.1531806 C39.4054902,58.4527225 39.8813972,60.3689787 40.8332254,61.9020066 C41.7850535,63.4350345 43.1810473,64.7764138 45.0212485,65.9261847 C46.8614496,67.0759556 49.0506216,68.1298965 51.5888302,69.088039 C54.1270387,70.0461814 56.9824804,71.0362471 60.1552411,72.0582657 C64.7240164,73.5912936 69.483086,75.2839865 74.4325926,77.1363953 C79.3820992,78.988804 83.8873517,81.4479994 87.9484854,84.5140552 C92.009619,87.580111 95.3726948,91.3806857 98.0378138,95.9158933 C100.702933,100.451101 102.035472,106.104056 102.035472,112.87493 C102.035472,120.667822 100.607751,127.406656 97.7522667,133.091634 C94.8967822,138.776613 91.0577994,143.47144 86.2352032,147.176258 C81.412607,150.881075 75.8920863,153.627709 69.6734754,155.416242 C63.4548646,157.204774 57.0459842,158.099027 50.446642,158.099027 C40.8014497,158.099027 31.4736733,156.406334 22.4630331,153.020897 C13.4523928,149.635461 5.96479001,144.812883 0,138.553019 L21.3208449,116.70748 C24.620516,120.795555 28.9671329,124.212878 34.360826,126.959553 C39.7545191,129.706228 45.1164042,131.079545 50.446642,131.079545 C52.8579401,131.079545 55.2057478,130.824044 57.4901355,130.313035 C59.7745231,129.802026 61.7733323,128.971648 63.4866231,127.821877 C65.1999138,126.672106 66.5641805,125.139101 67.5794639,123.222816 C68.5947473,121.306532 69.1023814,119.007024 69.1023814,116.324225 C69.1023814,113.769179 68.4678388,111.597422 67.1987345,109.808889 C65.9296302,108.020357 64.1211838,106.391539 61.7733409,104.922387 C59.425498,103.453235 56.506602,102.111856 53.0165653,100.898209 C49.5265286,99.684562 45.5606373,98.3751203 41.1187724,96.9698447 C36.8038179,95.5645691 32.5841095,93.9038138 28.4595207,91.9875289 C24.3349319,90.071244 20.6545847,87.6120486 17.4183689,84.609869 C14.182153,81.6076893 11.5805283,77.9668026 9.61341669,73.6870997 C7.64630509,69.4073968 6.66276404,64.2015676 6.66276404,58.069456 C6.66276404,50.5320687 8.18566631,44.080673 11.2315165,38.7150753 C14.2773668,33.3494777 18.2749852,28.9420885 23.2244918,25.4927757 C28.1739984,22.0434629 33.7579734,19.5203923 39.9765843,17.9234883 C46.1951951,16.3265842 52.477167,15.5281441 58.8226883,15.5281441 C66.4373138,15.5281441 74.2104608,16.9333986 82.1423624,19.7439498 C90.074264,22.554501 97.0225056,26.7063893 102.987296,32.1997393 L82.2375448,54.2369053 Z M212.169316,107.072518 C212.169316,113.717192 211.155508,120.106206 209.127863,126.239752 C207.100217,132.373297 204.153839,137.772014 200.288639,142.436064 C196.42344,147.100114 191.702898,150.837687 186.126873,153.648895 C180.550847,156.460104 174.21455,157.865687 167.11779,157.865687 C161.288309,157.865687 155.77573,156.683719 150.579888,154.319749 C145.384046,151.955778 141.328816,148.729326 138.414076,144.640296 L138.033894,144.640296 L138.033894,191 L106.858998,191 L106.858998,59.7294513 L136.513167,59.7294513 L136.513167,71.4214637 L137.08344,71.4214637 C139.99818,67.5879978 144.021729,64.2337655 149.154207,61.3586661 C154.286685,58.4835667 160.337849,57.0460386 167.307881,57.0460386 C174.151185,57.0460386 180.360756,58.3877315 185.936782,61.0711576 C191.512807,63.7545837 196.233349,67.3963217 200.098548,71.9964807 C203.963748,76.5966398 206.941808,81.9314664 209.032817,88.0011207 C211.123827,94.070775 212.169316,100.427844 212.169316,107.072518 Z M181.970034,106.596397 C181.970034,103.511916 181.496286,100.491739 180.548776,97.5357777 C179.601266,94.5798161 178.211605,91.9773237 176.379752,89.7282225 C174.547899,87.4791213 172.242326,85.6477378 169.462963,84.2340171 C166.6836,82.8202963 163.462114,82.1134466 159.798409,82.1134466 C156.261038,82.1134466 153.102718,82.8202963 150.323355,84.2340171 C147.543992,85.6477378 145.175253,87.5112509 143.217065,89.8246121 C141.258878,92.1379733 139.742884,94.7725952 138.66904,97.7285568 C137.595195,100.684518 137.058281,103.704695 137.058281,106.789176 C137.058281,109.873658 137.595195,112.893834 138.66904,115.849796 C139.742884,118.805757 141.258878,121.440379 143.217065,123.75374 C145.175253,126.067102 147.543992,127.930615 150.323355,129.344336 C153.102718,130.758056 156.261038,131.464906 159.798409,131.464906 C163.462114,131.464906 166.6836,130.758056 169.462963,129.344336 C172.242326,127.930615 174.547899,126.067102 176.379752,123.75374 C178.211605,121.440379 179.601266,118.773628 180.548776,115.753406 C181.496286,112.733185 181.970034,109.680879 181.970034,106.596397 Z M319.802655,106.796566 C319.802655,114.610463 318.406149,121.687698 315.613094,128.028484 C312.82004,134.369269 309.011387,139.749248 304.18702,144.168584 C299.362654,148.587919 293.776629,152.014453 287.428778,154.44829 C281.080927,156.882127 274.288829,158.099027 267.052279,158.099027 C259.942686,158.099027 253.182326,156.882127 246.770997,154.44829 C240.359668,152.014453 234.773643,148.587919 230.012755,144.168584 C225.251867,139.749248 221.474952,134.369269 218.681898,128.028484 C215.888844,121.687698 214.492338,114.610463 214.492338,106.796566 C214.492338,98.9826695 215.888844,91.9374582 218.681898,85.6607213 C221.474952,79.3839844 225.251867,74.0680522 230.012755,69.7127654 C234.773643,65.3574785 240.359668,62.027015 246.770997,59.7212749 C253.182326,57.4155348 259.942686,56.2626821 267.052279,56.2626821 C274.288829,56.2626821 281.080927,57.4155348 287.428778,59.7212749 C293.776629,62.027015 299.362654,65.3574785 304.18702,69.7127654 C309.011387,74.0680522 312.82004,79.3839844 315.613094,85.6607213 C318.406149,91.9374582 319.802655,98.9826695 319.802655,106.796566 Z M289.603373,106.596397 C289.603373,103.511916 289.0959,100.491739 288.08094,97.5357777 C287.06598,94.5798161 285.606997,91.9773237 283.703948,89.7282225 C281.800898,87.4791213 279.453838,85.6477378 276.662698,84.2340171 C273.871558,82.8202963 270.636422,82.1134466 266.957192,82.1134466 C263.277962,82.1134466 260.042826,82.8202963 257.251686,84.2340171 C254.460546,85.6477378 252.145204,87.4791213 250.305589,89.7282225 C248.465974,91.9773237 247.070425,94.5798161 246.1189,97.5357777 C245.167375,100.491739 244.69162,103.511916 244.69162,106.596397 C244.69162,109.680879 245.167375,112.701055 246.1189,115.657017 C247.070425,118.612978 248.497691,121.27973 250.400741,123.657351 C252.303791,126.034972 254.65085,127.930615 257.44199,129.344336 C260.23313,130.758056 263.468266,131.464906 267.147496,131.464906 C270.826726,131.464906 274.061862,130.758056 276.853002,129.344336 C279.644142,127.930615 281.991202,126.034972 283.894252,123.657351 C285.797301,121.27973 287.224567,118.612978 288.176092,115.657017 C289.127617,112.701055 289.603373,109.680879 289.603373,106.596397 Z M385.173052,154.965601 L385.173052,102.529675 C385.173052,99.8307539 384.950878,97.2603911 384.506521,94.8185098 C384.062165,92.3766285 383.332162,90.2239496 382.316491,88.3604087 C381.30082,86.4968677 379.872553,85.0189091 378.031649,83.9264885 C376.190745,82.8340679 373.87378,82.2878658 371.080683,82.2878658 C368.287587,82.2878658 365.843665,82.8340679 363.748843,83.9264885 C361.654021,85.0189091 359.908362,86.5289972 358.511814,88.4567982 C357.115266,90.3845993 356.067871,92.6015372 355.369597,95.1076785 C354.671323,97.6138198 354.322191,100.216312 354.322191,102.915234 L354.322191,154.965601 L322.900017,154.965601 L322.900017,58.96159 L353.179566,58.96159 L353.179566,72.2633506 L353.560441,72.2633506 C354.703071,70.2070295 356.194816,68.1828688 358.03572,66.1908077 C359.876625,64.1987467 362.034894,62.4958813 364.510593,61.0821606 C366.986291,59.6684398 369.684128,58.5117765 372.604183,57.6121361 C375.524238,56.7124956 378.634684,56.2626821 381.935616,56.2626821 C388.283562,56.2626821 393.679235,57.4193454 398.122797,59.7327066 C402.566359,62.0460678 406.152894,65.0341146 408.882511,68.6969365 C411.612127,72.3597585 413.579961,76.5687276 414.786071,81.3239701 C415.99218,86.0792126 416.595226,90.8343838 416.595226,95.5896264 L416.595226,154.965601 L385.173052,154.965601 Z M483.121026,87.5821618 C480.587239,85.148325 477.610083,83.098809 474.18947,81.4335523 C470.768857,79.7682955 467.158263,78.9356796 463.357582,78.9356796 C460.443726,78.9356796 457.751617,79.512106 455.281174,80.6649761 C452.810731,81.8178461 451.575528,83.8033147 451.575528,86.6214415 C451.575528,89.3114716 452.937419,91.2328929 455.66124,92.3857629 C458.385062,93.538633 462.787452,94.8195805 468.868542,96.2286439 C472.415845,96.9972239 475.994766,98.0860293 479.605414,99.4950927 C483.216061,100.904156 486.478264,102.76153 489.392119,105.06727 C492.305975,107.37301 494.649694,110.191095 496.423345,113.521608 C498.196996,116.852122 499.083809,120.823059 499.083809,125.434539 C499.083809,131.455083 497.880278,136.546849 495.473179,140.709991 C493.066081,144.873133 489.930566,148.23562 486.06654,150.797553 C482.202514,153.359487 477.863468,155.216861 473.049271,156.369731 C468.235075,157.522601 463.42095,158.099027 458.606754,158.099027 C450.878702,158.099027 443.309125,156.850103 435.897796,154.352218 C428.486467,151.854333 422.310452,148.171609 417.369567,143.303935 L434.852614,124.665963 C437.63978,127.740283 441.060342,130.302178 445.114402,132.351725 C449.168462,134.401271 453.475837,135.426029 458.036654,135.426029 C460.570442,135.426029 463.07252,134.817579 465.542963,133.600661 C468.013406,132.383743 469.248609,130.238156 469.248609,127.163835 C469.248609,124.217612 467.728359,122.040001 464.687814,120.630938 C461.647269,119.221874 456.896488,117.748785 450.43533,116.211625 C447.141406,115.443045 443.847531,114.418287 440.553607,113.13732 C437.259683,111.856353 434.3142,110.127074 431.717067,107.949431 C429.119935,105.771787 426.99792,103.081798 425.350958,99.8793808 C423.703996,96.676964 422.880527,92.8341215 422.880527,88.3507379 C422.880527,82.5863877 424.084058,77.6867635 426.491156,73.6517183 C428.898255,69.6166732 432.002098,66.3182334 435.802779,63.7562999 C439.603461,61.1943665 443.815819,59.3049689 448.439982,58.0880505 C453.064144,56.8711322 457.656565,56.2626821 462.217383,56.2626821 C469.311988,56.2626821 476.248128,57.3835112 483.02601,59.6252029 C489.803892,61.8668947 495.5365,65.2293819 500.224007,69.7127654 L483.121026,87.5821618 Z M545.259395,83.0630066 L545.259395,119.517803 C545.259395,123.99473 546.118318,127.352375 547.836192,129.590839 C549.554065,131.829302 552.639828,132.948517 557.093574,132.948517 C558.620573,132.948517 560.242984,132.820607 561.960858,132.564783 C563.678731,132.308958 565.110271,131.925227 566.25552,131.413578 L566.637268,154.43766 C564.47402,155.205134 561.738188,155.876663 558.429691,156.452267 C555.121194,157.027872 551.812747,157.315671 548.50425,157.315671 C542.141756,157.315671 536.797342,156.516231 532.470846,154.917329 C528.14435,153.318426 524.676842,151.016041 522.06822,148.010104 C519.459597,145.004167 517.58269,141.422679 516.437441,137.265533 C515.292192,133.108386 514.719576,128.471638 514.719576,123.35515 L514.719576,83.0630066 L499.449667,83.0630066 L499.449667,59.4633228 L514.528702,59.4633228 L514.528702,34.3287001 L545.259395,34.3287001 L545.259395,59.4633228 L567.591637,59.4633228 L567.591637,83.0630066 L545.259395,83.0630066 Z M634.184926,96.2138636 C634.184926,91.2828159 632.626474,87.0472359 629.509523,83.5069966 C626.392573,79.9667572 621.717217,78.1966641 615.483317,78.1966641 C612.429977,78.1966641 609.631125,78.6707962 607.086676,79.6190746 C604.542226,80.567353 602.315867,81.863314 600.40753,83.5069966 C598.499193,85.1506791 596.972546,87.0788163 595.827544,89.2914659 C594.682541,91.5041155 594.046439,93.8115583 593.919216,96.2138636 L634.184926,96.2138636 Z M662.835527,108.333719 L662.835527,112.1766 C662.835527,113.457566 662.772367,114.674467 662.646045,115.827337 L594.242977,115.827337 C594.495621,118.517367 595.285122,120.951167 596.611504,123.12881 C597.937886,125.306454 599.643209,127.195851 601.727523,128.79706 C603.811838,130.398268 606.148761,131.647192 608.738364,132.543869 C611.327967,133.440545 614.012271,133.888877 616.791357,133.888877 C621.717918,133.888877 625.886484,132.96019 629.297181,131.102788 C632.707877,129.245387 635.486921,126.84361 637.634397,123.897387 L659.235365,137.731758 C654.814092,144.264688 648.971784,149.292407 641.708264,152.815066 C634.444744,156.337724 626.012871,158.099027 616.412392,158.099027 C609.338356,158.099027 602.643385,156.978198 596.327281,154.736506 C590.011177,152.494814 584.484668,149.228398 579.74759,144.93716 C575.010512,140.645921 571.284066,135.362013 568.568142,129.085276 C565.852217,122.808539 564.494275,115.635233 564.494275,107.565143 C564.494275,99.7512457 565.820637,92.6740107 568.4734,86.3332255 C571.126164,79.9924402 574.72629,74.6124607 579.273885,70.1931255 C583.82148,65.7737903 589.190088,62.3472557 595.37987,59.913419 C601.569652,57.4795822 608.264623,56.2626821 615.464981,56.2626821 C622.412696,56.2626821 628.791866,57.4475585 634.602682,59.817347 C640.413498,62.1871354 645.403145,65.61367 649.571774,70.0970535 C653.740403,74.580437 656.993148,80.0244639 659.330106,86.4292975 C661.667065,92.8341311 662.835527,100.135532 662.835527,108.333719 Z M731.19572,84.7939946 C729.8019,84.4084344 728.439778,84.1513981 727.109314,84.022878 C725.778849,83.894358 724.480082,83.8300989 723.212973,83.8300989 C719.031513,83.8300989 715.515338,84.6012077 712.664342,86.1434486 C709.813347,87.6856894 707.532585,89.5492024 705.821988,91.7340436 C704.11139,93.9188847 702.875977,96.2964703 702.115712,98.8668717 C701.355447,101.437273 700.97532,103.686341 700.97532,105.614142 L700.97532,154.965601 L669.804592,154.965601 L669.804592,58.96159 L699.834927,58.96159 L699.834927,72.841688 L700.215058,72.841688 C702.622565,67.9579254 706.043708,63.9738631 710.47859,60.8893814 C714.913472,57.8048998 720.045187,56.2626821 725.873889,56.2626821 C727.140998,56.2626821 728.37641,56.3269412 729.580164,56.4554612 C730.783918,56.5839813 731.765913,56.7767585 732.526178,57.0337986 L731.19572,84.7939946 Z" id="Sponster-Copy" fill="#43B375"></path>
            <g id="Group-4" transform="translate(757, 0)">
                <g id="Group-Copy" fill="#43B375">
                    <path d="M178.051534,48.1072319 L178.051534,101.69202 C178.051534,151.015455 138.19334,191 89.0257669,191 L0,191 L0,101.69202 C0,52.3685845 39.8581935,12.3840399 89.0257669,12.3840399 L124.636074,12.3840399 L124.636074,30.2456359 L142.441227,30.2456359 L142.441227,48.1072319 L178.051534,48.1072319 Z" id="Oval-2"></path>
                    <rect id="Rectangle-2" x="176.147239" y="0" width="17.8527607" height="17.861596"></rect>
                    <rect id="Rectangle-2" x="165.435583" y="22.8628429" width="17.8527607" height="17.861596"></rect>
                    <rect id="Rectangle-2" x="149.96319" y="2.14339152" width="17.8527607" height="17.861596"></rect>
                    <rect id="Rectangle-2" x="144.488344" y="25.9588529" width="17.8527607" height="17.861596"></rect>
                    <rect id="Rectangle-2" x="126.87362" y="6.19201995" width="17.8527607" height="17.861596"></rect>
                </g>
                <g id="Group-13" transform="translate(25, 37)">
                    <ellipse id="Oval" fill="#A1D9BA" cx="65" cy="66" rx="65" ry="66"></ellipse>
                    <polygon id="Triangle-1" fill="#225A3B" points="41.0469108 96.142182 41.0469108 36.0481928 99.7368421 66.0951874"></polygon>
                </g>
            </g>
        </g>
    </g>
</svg>