<?xml version="1.0" encoding="UTF-8"?>
<svg width="855px" height="250px" viewBox="0 0 855 250" version="1.1" xmlns="http://www.w3.org/2000/svg" xmlns:xlink="http://www.w3.org/1999/xlink">
    <title>Slice Copy</title>
    <g id="Page-1" stroke="none" stroke-width="1" fill="none" fill-rule="evenodd">
        <g id="Group-14" transform="translate(-171, 0)">
            <g id="Group-3" transform="translate(215, 56.7779)" fill="#D48610">
                <g id="Group-2" transform="translate(0, 0.2221)">
                    <path d="M99.4258656,37.9322472 L68.7919503,37.9322472 L68.7919503,134 L30.7682746,134 L30.7682746,37.9322472 L0,37.9322472 L0,0.0142918089 L99.4258656,0.0142918089 L99.4258656,37.9322472 Z M146.585972,0.0142918089 L146.585972,134 L108.427937,134 L108.427937,0.0142918089 L146.585972,0.0142918089 Z M345.572063,0.0142918089 L345.572063,134 L307.414028,134 L307.414028,0.0142918089 L345.572063,0.0142918089 Z M454,37.9322472 L423.366085,37.9322472 L423.366085,134 L385.342409,134 L385.342409,37.9322472 L354.574134,37.9322472 L354.574134,0.0142918089 L454,0.0142918089 L454,37.9322472 Z" id="tiqit-copy-2"></path>
                    <g id="Group" transform="translate(159.9072, 0)" fill-rule="nonzero">
                        <path d="M67.1868048,0 C104.293052,0 134.37361,29.9969218 134.37361,67 C134.37361,104.003078 104.293052,134 67.1868048,134 C30.0805571,134 0,104.003078 0,67 C0,29.9969218 30.0805571,0 67.1868048,0 Z M67.4161113,38.4163823 C51.4591584,38.4163823 38.5234922,51.3160824 38.5234922,67.2286689 C38.5234922,83.1412555 51.4591584,96.0409556 67.4161113,96.0409556 C83.3730642,96.0409556 96.3087304,83.1412555 96.3087304,67.2286689 C96.3087304,51.3160824 83.3730642,38.4163823 67.4161113,38.4163823 Z" id="Combined-Shape"></path>
                    </g>
                </g>
                <polygon id="Path" transform="translate(261.967, 102.3572) rotate(-46) translate(-261.967, -102.3572)" points="276.278361 67.4154786 276.212163 137.274954 247.655656 137.298885 247.721854 67.439409"></polygon>
            </g>
            <g id="Group-11" transform="translate(717, 24)">
                <path d="M204.194251,13 L204.194251,34.1021778 L225.129501,34.1021778 L225.129501,55.2043557 L267,55.2043557 L267.000727,78.2618633 C266.963017,78.2617057 266.925289,78.2616268 266.887543,78.2616268 C252.15642,78.2616268 240.214485,90.2742734 240.214485,105.092624 C240.214485,119.910974 252.15642,131.923621 266.887543,131.923621 L267,131.922 L267,195 L0.000978041131,195 L0.000380843984,131.923168 L0.156960838,131.923621 C14.8880841,131.923621 26.830019,119.910974 26.830019,105.092624 C26.830019,90.2742734 14.8880841,78.2616268 0.156960838,78.2616268 L0,78.262 L0.000978041131,13 L204.194251,13 Z" id="Combined-Shape" fill="#D48610"></path>
                <rect id="Rectangle-7" fill="#D48610" x="228" y="29" width="21" height="21"></rect>
                <rect id="Rectangle-7" fill="#D48610" x="252" y="27" width="21" height="21"></rect>
                <rect id="Rectangle-7" fill="#D48610" x="263" y="0" width="21" height="21"></rect>
                <rect id="Rectangle-7" fill="#D48610" x="233" y="2" width="21" height="21"></rect>
                <rect id="Rectangle-7" fill="#D48610" x="207" y="7" width="21" height="21"></rect>
                <polygon id="Triangle" fill="#000000" fill-rule="nonzero" opacity="0.495047433" transform="translate(135, 104) rotate(-270) translate(-135, -104)" points="135 69 170 139 100 139 115.401414 108.197172"></polygon>
            </g>
        </g>
    </g>
</svg>