<?xml version="1.0" encoding="UTF-8"?>
<svg width="916px" height="914px" viewBox="0 0 916 914" version="1.1" xmlns="http://www.w3.org/2000/svg" xmlns:xlink="http://www.w3.org/1999/xlink">
    <title>Tiqit Copy 3</title>
    <g id="Page-1" stroke="none" stroke-width="1" fill="none" fill-rule="evenodd">
        <g id="Logo-Strip-Dark" transform="translate(-2720, 0)">
            <g id="Tiqit-Copy-3" transform="translate(2720.2801, 0)">
                <g id="Group-3" transform="translate(-0.2801, 656)" fill="#545454">
                    <g id="Group-2">
                        <path d="M187.543548,71.6183474 L129.846147,71.6183474 L129.846147,253 L58.2305121,253 L58.2305121,71.6183474 L0.280051715,71.6183474 L0.280051715,0.0269837884 L187.543548,0.0269837884 L187.543548,71.6183474 Z M276.36718,0.0269837884 L276.36718,253 L204.498486,253 L204.498486,0.0269837884 L276.36718,0.0269837884 Z M651.147231,0.0269837884 L651.147231,253 L579.278538,253 L579.278538,0.0269837884 L651.147231,0.0269837884 Z M855.365666,71.6183474 L797.668264,71.6183474 L797.668264,253 L726.05263,253 L726.05263,71.6183474 L668.10217,71.6183474 L668.10217,0.0269837884 L855.365666,0.0269837884 L855.365666,71.6183474 Z" id="tiqit-copy-2"></path>
                        <g id="Group" transform="translate(301.4571, 0)" fill-rule="nonzero">
                            <path d="M126.542886,0 C196.430592,0 253.085772,56.6359792 253.085772,126.5 C253.085772,196.364021 196.430592,253 126.542886,253 C56.6551799,253 0,196.364021 0,126.5 C0,56.6359792 56.6551799,0 126.542886,0 Z M126.974773,72.5324232 C96.9206741,72.5324232 72.5570131,96.8878272 72.5570131,126.931741 C72.5570131,156.975654 96.9206741,181.331058 126.974773,181.331058 C157.028872,181.331058 181.392533,156.975654 181.392533,126.931741 C181.392533,96.8878272 157.028872,72.5324232 126.974773,72.5324232 Z" id="Combined-Shape"></path>
                        </g>
                    </g>
                    <polygon id="Path" transform="translate(493.0297, 192.6382) rotate(-46) translate(-493.0297, -192.6382)" points="519.852446 126.958729 519.909395 258.346894 466.206934 258.317734 466.149985 126.929569"></polygon>
                </g>
                <path d="M658.257748,43 L658.257748,110.244471 L725.365308,110.244471 L725.365308,177.488942 L859.580428,177.488942 L859.580694,250.964283 C859.460504,250.963787 859.340255,250.963539 859.219948,250.963539 C811.999602,250.963539 773.719948,289.243192 773.719948,336.463539 C773.719948,383.683885 811.999602,421.963539 859.219948,421.963539 L859.579948,421.96 L859.580428,622.963539 L3.71994836,622.963539 L3.71900795,421.962102 C3.88587527,421.963059 4.05285584,421.963539 4.21994836,421.963539 C51.4402945,421.963539 89.7199484,383.683885 89.7199484,336.463539 C89.7199484,289.243192 51.4402945,250.963539 4.21994836,250.963539 L3.71994828,250.967 L3.71994836,43 L658.257748,43 Z" id="Combined-Shape" fill="#F5A622"></path>
                <rect id="Rectangle-7" fill="#F5A622" x="732.719948" y="95" width="67.1075599" height="67.244471"></rect>
                <rect id="Rectangle-7" fill="#F5A622" x="810.719948" y="82" width="67.1075599" height="67.244471"></rect>
                <rect id="Rectangle-7" fill="#F5A622" x="847.719948" y="0" width="67.1075599" height="67.244471"></rect>
                <rect id="Rectangle-7" fill="#F5A622" x="753.719948" y="6" width="67.1075599" height="67.244471"></rect>
                <rect id="Rectangle-7" fill="#F5A622" x="669.719948" y="21" width="67.1075599" height="67.244471"></rect>
                <polygon id="Triangle" fill="#000000" fill-rule="nonzero" opacity="0.495047433" transform="translate(441.2199, 332.5) rotate(-270) translate(-441.2199, -332.5)" points="441.219948 220 553.719948 445 328.719948 445"></polygon>
            </g>
        </g>
    </g>
</svg>