<?xml version="1.0" encoding="UTF-8"?>
<svg width="1045px" height="250px" viewBox="0 0 1045 250" version="1.1" xmlns="http://www.w3.org/2000/svg" xmlns:xlink="http://www.w3.org/1999/xlink">
    <title>Slice Copy</title>
    <g id="Page-1" stroke="none" stroke-width="1" fill="none" fill-rule="evenodd">
        <g id="Group-14">
            <g id="Group-3" transform="translate(42, 37)" fill="#F5A622">
                <g id="Group-2">
                    <path d="M132.056822,50.387612 L91.3690441,50.387612 L91.3690441,178 L40.8662326,178 L40.8662326,50.387612 L0,50.387612 L0,0.0189846416 L132.056822,0.0189846416 L132.056822,50.387612 Z M194.694584,0.0189846416 L194.694584,178 L144.013318,178 L144.013318,0.0189846416 L194.694584,0.0189846416 Z M458.986682,0.0189846416 L458.986682,178 L408.305416,178 L408.305416,0.0189846416 L458.986682,0.0189846416 Z M603,50.387612 L562.312223,50.387612 L562.312223,178 L511.809411,178 L511.809411,50.387612 L470.943178,50.387612 L470.943178,0.0189846416 L603,0.0189846416 L603,50.387612 Z" id="tiqit-copy-2"></path>
                    <g id="Group" transform="translate(212.3878, 0)" fill-rule="nonzero">
                        <path d="M89.2370997,0 C138.521389,0 178.474199,39.8466573 178.474199,89 C178.474199,138.153343 138.521389,178 89.2370997,178 C39.9528104,178 0,138.153343 0,89 C0,39.8466573 39.9528104,0 89.2370997,0 Z M89.5416632,51.0307167 C68.3477368,51.0307167 51.1666647,68.1661393 51.1666647,89.3037543 C51.1666647,110.441369 68.3477368,127.576792 89.5416632,127.576792 C110.73559,127.576792 127.916662,110.441369 127.916662,89.3037543 C127.916662,68.1661393 110.73559,51.0307167 89.5416632,51.0307167 Z" id="Combined-Shape"></path>
                    </g>
                </g>
                <polygon id="Path" transform="translate(347.943, 135.9028) rotate(-46) translate(-347.943, -135.9028)" points="366.860067 89.5814191 366.900231 182.244651 329.025863 182.224086 328.985699 89.560854"></polygon>
            </g>
            <g id="Group-11" transform="translate(717, 24)">
                <path d="M204.194251,13 L204.194251,34.1021778 L225.129501,34.1021778 L225.129501,55.2043557 L267,55.2043557 L267.000727,78.2618633 C266.963017,78.2617057 266.925289,78.2616268 266.887543,78.2616268 C252.15642,78.2616268 240.214485,90.2742734 240.214485,105.092624 C240.214485,119.910974 252.15642,131.923621 266.887543,131.923621 L267,131.922 L267,195 L0.000978041131,195 L0.000380843984,131.923168 L0.156960838,131.923621 C14.8880841,131.923621 26.830019,119.910974 26.830019,105.092624 C26.830019,90.2742734 14.8880841,78.2616268 0.156960838,78.2616268 L0,78.262 L0.000978041131,13 L204.194251,13 Z" id="Combined-Shape" fill="#F5A622"></path>
                <rect id="Rectangle-7" fill="#F5A622" x="228" y="29" width="21" height="21"></rect>
                <rect id="Rectangle-7" fill="#F5A622" x="252" y="27" width="21" height="21"></rect>
                <rect id="Rectangle-7" fill="#F5A622" x="263" y="0" width="21" height="21"></rect>
                <rect id="Rectangle-7" fill="#F5A622" x="233" y="2" width="21" height="21"></rect>
                <rect id="Rectangle-7" fill="#F5A622" x="207" y="7" width="21" height="21"></rect>
                <polygon id="Triangle" fill="#000000" fill-rule="nonzero" opacity="0.495047433" transform="translate(135, 104) rotate(-270) translate(-135, -104)" points="135 69 170 139 100 139"></polygon>
            </g>
        </g>
    </g>
</svg>