<?xml version="1.0" encoding="UTF-8"?>
<svg width="1064px" height="1064px" viewBox="0 0 1064 1064" version="1.1" xmlns="http://www.w3.org/2000/svg" xmlns:xlink="http://www.w3.org/1999/xlink">
    <title>Slice 8</title>
    <g id="Page-1" stroke="none" stroke-width="1" fill="none" fill-rule="evenodd">
        <g id="Logo-Strip-Dark" transform="translate(128, 43)">
            <g id="YouData" transform="translate(-3, 26)">
                <path d="M101.216187,841.867373 L101.216187,910.8875 L61.609853,910.8875 L61.609853,841.867373 L0,748 L47.9445097,748 L82.918524,808.277578 L117.892538,748 L164.215736,748 L101.216187,841.867373 Z M243.362944,852.325519 C243.362944,861.719182 241.681473,870.22725 238.31848,877.849976 C234.955487,885.472703 230.369656,891.940374 224.560849,897.253184 C218.752043,902.565994 212.026158,906.685284 204.382992,909.611179 C196.739826,912.537074 188.56176,914 179.848551,914 C171.288205,914 163.148355,912.537074 155.428757,909.611179 C147.70916,906.685284 140.983274,902.565994 135.2509,897.253184 C129.518525,891.940374 124.970909,885.472703 121.607916,877.849976 C118.244923,870.22725 116.563452,861.719182 116.563452,852.325519 C116.563452,842.931856 118.244923,834.462286 121.607916,826.916557 C124.970909,819.370827 129.518525,812.980152 135.2509,807.74434 C140.983274,802.508527 147.70916,798.504731 155.428757,795.73283 C163.148355,792.96093 171.288205,791.575 179.848551,791.575 C188.56176,791.575 196.739826,792.96093 204.382992,795.73283 C212.026158,798.504731 218.752043,802.508527 224.560849,807.74434 C230.369656,812.980152 234.955487,819.370827 238.31848,826.916557 C241.681473,834.462286 243.362944,842.931856 243.362944,852.325519 Z M206.986041,852.037744 C206.986041,848.341632 206.375361,844.722576 205.153983,841.180469 C203.932606,837.638361 202.176902,834.519813 199.886819,831.824731 C197.596736,829.12965 194.772343,826.935116 191.413555,825.241064 C188.054767,823.547013 184.161684,822.7 179.734191,822.7 C175.306697,822.7 171.413615,823.547013 168.054827,825.241064 C164.696038,826.935116 161.909813,829.12965 159.696066,831.824731 C157.482319,834.519813 155.80295,837.638361 154.657909,841.180469 C153.512867,844.722576 152.940355,848.341632 152.940355,852.037744 C152.940355,855.733856 153.512867,859.352912 154.657909,862.89502 C155.80295,866.437127 157.520487,869.632676 159.81057,872.481763 C162.100652,875.330849 164.925046,877.602384 168.283834,879.296436 C171.642622,880.990487 175.535704,881.8375 179.963198,881.8375 C184.390691,881.8375 188.283774,880.990487 191.642562,879.296436 C195.00135,877.602384 197.825744,875.330849 200.115826,872.481763 C202.405909,869.632676 204.123446,866.437127 205.268487,862.89502 C206.413528,859.352912 206.986041,855.733856 206.986041,852.037744 Z M323.313811,910.765918 L323.313811,894.826514 L322.852352,894.826514 C321.46797,897.444593 319.660609,899.908631 317.430215,902.218701 C315.199821,904.528771 312.584915,906.530802 309.58542,908.224854 C306.585924,909.918905 303.278838,911.304926 299.664061,912.382959 C296.049284,913.460992 292.242289,914 288.242962,914 C280.551948,914 274.053139,912.613979 268.746339,909.841895 C263.439539,907.06981 259.132636,903.489255 255.8255,899.100122 C252.518364,894.710989 250.134185,889.705912 248.672893,884.084741 C247.2116,878.463571 246.480964,872.726982 246.480964,866.874805 L246.480964,795.725 L284.551294,795.725 L284.551294,858.096582 C284.551294,861.33068 284.782021,864.410728 285.243482,867.336816 C285.704942,870.262905 286.589396,872.880945 287.896868,875.191016 C289.204341,877.501086 290.934793,879.310614 293.088277,880.619653 C295.241761,881.928693 298.087393,882.583203 301.62526,882.583203 C308.239532,882.583203 313.277071,880.119165 316.738027,875.191016 C320.198983,870.262866 321.929435,864.487777 321.929435,857.865576 L321.929435,795.725 L359.769036,795.725 L359.769036,910.765918 L323.313811,910.765918 Z M527.102792,828.983616 C527.102792,843.247847 524.4628,855.556313 519.182737,865.909384 C513.902674,876.262455 506.939218,884.774852 498.292158,891.446831 C489.645099,898.11881 479.888608,903.026859 469.022391,906.171125 C458.156175,909.315391 447.137079,910.8875 435.964772,910.8875 L375.359137,910.8875 L375.359137,748 L434.128238,748 C445.606635,748 456.931817,749.342045 468.104124,752.026174 C479.276431,754.710304 489.224226,759.158223 497.947808,765.370065 C506.67139,771.581908 513.711368,779.902584 519.067954,790.332345 C524.424539,800.762105 527.102792,813.645733 527.102792,828.983616 Z M487.607868,829.2157 C487.607868,820.093674 486.111365,812.530108 483.118313,806.524774 C480.125262,800.51944 476.134587,795.730448 471.146168,792.157654 C466.157749,788.58486 460.478711,786.038333 454.108884,784.517995 C447.739057,782.997657 441.177466,782.2375 434.423914,782.2375 L414.854061,782.2375 L414.854061,876.65 L433.50298,876.65 C440.563511,876.65 447.355333,875.851835 453.87865,874.25548 C460.401967,872.659125 466.157749,870.036582 471.146168,866.387772 C476.134587,862.738961 480.125262,857.873954 483.118313,851.792603 C486.111365,845.711252 487.607868,838.185693 487.607868,829.2157 Z M595.699239,861.0875 L590.807172,861.0875 C586.613952,861.0875 582.381968,861.276399 578.111095,861.654202 C573.840222,862.032005 570.03532,862.74982 566.696274,863.807668 C563.357228,864.865516 560.600615,866.414486 558.426352,868.454622 C556.25209,870.494758 555.164975,873.177119 555.164975,876.501786 C555.164975,878.617483 555.669707,880.43091 556.679186,881.942122 C557.688665,883.453334 558.969907,884.662285 560.522952,885.569013 C562.075997,886.47574 563.861971,887.117995 565.880929,887.495798 C567.899888,887.873601 569.841164,888.0625 571.704818,888.0625 C579.470041,888.0625 585.410348,885.984615 589.525917,881.828782 C593.641485,877.672948 595.699239,872.043768 595.699239,864.941071 L595.699239,861.0875 Z M528.40689,811.831892 C535.08204,805.425396 542.856955,800.620596 551.73187,797.417348 C560.606785,794.2141 569.671199,792.6125 578.925383,792.6125 C588.482984,792.6125 596.561311,793.794633 603.160606,796.158935 C609.759902,798.523237 615.107527,802.184037 619.203641,807.141445 C623.299756,812.098852 626.295943,818.352719 628.192292,825.903232 C630.088642,833.453745 631.036802,842.415078 631.036802,852.7875 L631.036802,910.216873 L596.902685,910.216873 L596.902685,898.090352 L596.220003,898.090352 C593.337552,902.818956 588.976014,906.479756 583.135258,909.072861 C577.294502,911.665967 570.96079,912.9625 564.133933,912.9625 C559.582694,912.9625 554.879819,912.352367 550.025164,911.132082 C545.17051,909.911797 540.733119,907.928864 536.712859,905.183222 C532.692598,902.437581 529.393,898.776781 526.813965,894.200713 C524.23493,889.624644 522.945431,883.980911 522.945431,877.269344 C522.945431,869.032421 525.18309,862.397221 529.658474,857.363546 C534.133859,852.32987 539.898674,848.44027 546.953094,845.694629 C554.007513,842.948988 561.858282,841.118588 570.505635,840.203375 C579.152987,839.288161 587.572652,838.830561 595.764881,838.830561 L595.764881,837.000143 C595.764881,831.356325 593.792707,827.199792 589.848301,824.530418 C585.903894,821.861045 581.049313,820.526378 575.284411,820.526378 C569.974633,820.526378 564.854566,821.670378 559.924058,823.958413 C554.99355,826.246447 550.783718,828.992047 547.294435,832.195295 L528.40689,811.831892 Z M683.457973,823.389509 L683.457973,867.365913 C683.457973,872.766551 684.479835,876.816968 686.523589,879.517287 C688.567344,882.217606 692.238478,883.567746 697.537101,883.567746 C699.353771,883.567746 701.283955,883.413444 703.32771,883.104836 C705.371464,882.796228 707.074568,882.333323 708.437071,881.716108 L708.891236,909.490679 C706.317619,910.416502 703.0628,911.226586 699.12668,911.920954 C695.19056,912.615321 691.254499,912.9625 687.318379,912.9625 C679.748917,912.9625 673.390665,911.998115 668.243431,910.069316 C663.096197,908.140516 658.970902,905.363087 655.867423,901.736944 C652.763944,898.110802 650.530986,893.790356 649.168483,888.775478 C647.80598,883.7606 647.124739,878.167166 647.124739,871.995008 L647.124739,823.389509 L628.958122,823.389509 L628.958122,794.920573 L646.897656,794.920573 L646.897656,764.6 L683.457973,764.6 L683.457973,794.920573 L710.02665,794.920573 L710.02665,823.389509 L683.457973,823.389509 Z M779.662437,861.0875 L774.77037,861.0875 C770.57715,861.0875 766.345166,861.276399 762.074293,861.654202 C757.80342,862.032005 753.998518,862.74982 750.659472,863.807668 C747.320426,864.865516 744.563813,866.414486 742.38955,868.454622 C740.215288,870.494758 739.128173,873.177119 739.128173,876.501786 C739.128173,878.617483 739.632905,880.43091 740.642384,881.942122 C741.651863,883.453334 742.933105,884.662285 744.48615,885.569013 C746.039195,886.47574 747.825169,887.117995 749.844127,887.495798 C751.863086,887.873601 753.804362,888.0625 755.668016,888.0625 C763.433239,888.0625 769.373546,885.984615 773.489115,881.828782 C777.604683,877.672948 779.662437,872.043768 779.662437,864.941071 L779.662437,861.0875 Z M712.370088,811.831892 C719.045238,805.425396 726.820153,800.620596 735.695068,797.417348 C744.569983,794.2141 753.634397,792.6125 762.888581,792.6125 C772.446182,792.6125 780.524509,793.794633 787.123804,796.158935 C793.7231,798.523237 799.070725,802.184037 803.166839,807.141445 C807.262954,812.098852 810.259141,818.352719 812.15549,825.903232 C814.05184,833.453745 815,842.415078 815,852.7875 L815,910.216873 L780.865883,910.216873 L780.865883,898.090352 L780.183201,898.090352 C777.30075,902.818956 772.939212,906.479756 767.098456,909.072861 C761.2577,911.665967 754.923988,912.9625 748.097131,912.9625 C743.545892,912.9625 738.843017,912.352367 733.988362,911.132082 C729.133708,909.911797 724.696317,907.928864 720.676057,905.183222 C716.655796,902.437581 713.356198,898.776781 710.777163,894.200713 C708.198128,889.624644 706.908629,883.980911 706.908629,877.269344 C706.908629,869.032421 709.146288,862.397221 713.621672,857.363546 C718.097057,852.32987 723.861872,848.44027 730.916292,845.694629 C737.970711,842.948988 745.82148,841.118588 754.468832,840.203375 C763.116185,839.288161 771.53585,838.830561 779.728079,838.830561 L779.728079,837.000143 C779.728079,831.356325 777.755905,827.199792 773.811499,824.530418 C769.867092,821.861045 765.012511,820.526378 759.247609,820.526378 C753.937831,820.526378 748.817764,821.670378 743.887256,823.958413 C738.956748,826.246447 734.746916,828.992047 731.257633,832.195295 L712.370088,811.831892 Z" fill="#545454"></path>
                <g id="Group-2" transform="translate(86, 0)">
                    <path d="M657.450644,218.005466 L657.450644,713 L0,713 L0,53.0072886 L410.906652,53.0072886 L410.906652,135.506378 L493.087983,135.506378 L493.087983,218.005466 L657.450644,218.005466 Z" id="Rectangle-1" fill="#8585AD"></path>
                    <rect id="Rectangle-7" fill="#8585AD" x="501.656652" y="116.408163" width="82.0515021" height="82.1093294"></rect>
                    <rect id="Rectangle-7" fill="#8585AD" x="598.248927" y="100.817784" width="82.0515021" height="82.1093294"></rect>
                    <rect id="Rectangle-7" fill="#8585AD" x="643.948498" y="0" width="82.0515021" height="82.1093294"></rect>
                    <rect id="Rectangle-7" fill="#8585AD" x="528.660944" y="8.3148688" width="82.0515021" height="82.1093294"></rect>
                    <rect id="Rectangle-7" fill="#8585AD" x="424.798283" y="28.0626822" width="82.0515021" height="82.1093294"></rect>
                    <path d="M517.134927,474.219317 C503.782752,494.098599 488.902538,511.624756 472.493841,526.798314 C429.219923,566.556877 381.361939,586.43586 328.918455,586.43586 C276.63584,586.43586 228.85829,566.65291 185.584372,527.086418 C169.014805,511.720789 154.054158,494.146616 140.701983,474.363369 C127.349807,454.580123 120.67382,442.960041 120.67382,439.502775 C120.67382,437.774141 121.719456,435.997517 123.810761,434.172849 C125.902066,432.348181 127.832472,431.43586 129.602037,431.43586 C131.049863,431.43586 132.175933,432.012062 132.980281,433.164485 C160.006371,468.6975 189.203763,494.386524 220.573332,510.232328 C251.942901,526.078133 288.057581,534.000916 328.918455,534.000916 C370.101068,534.000916 406.296182,526.078133 437.504881,510.232328 C468.71358,494.386524 497.830538,468.6975 524.856628,433.164485 C525.821846,432.012062 527.108783,431.43586 528.717479,431.43586 C530.647914,431.43586 532.538103,432.396197 534.388104,434.316901 C536.238104,436.237604 537.16309,438.062245 537.16309,439.790879 C537.16309,442.864004 530.487103,454.340036 517.134927,474.219317 Z" id="(" fill="#FFFFFF" opacity="0.495136089"></path>
                </g>
            </g>
        </g>
    </g>
</svg>