<?xml version="1.0" encoding="UTF-8"?>
<svg width="960px" height="250px" viewBox="0 0 960 250" version="1.1" xmlns="http://www.w3.org/2000/svg" xmlns:xlink="http://www.w3.org/1999/xlink">
    <title>Slice Copy</title>
    <g id="Page-1" stroke="none" stroke-width="1" fill="none" fill-rule="evenodd">
        <g id="Group-7" transform="translate(29, 25)">
            <path d="M82.5105036,104.805424 L82.5105036,161.28 L50.2237848,161.28 L50.2237848,104.805424 L0,28 L39.0839227,28 L67.5944171,77.3211299 L96.1049115,28 L133.867156,28 L82.5105036,104.805424 Z M198.361858,113.574279 C198.361858,121.25464 196.989137,128.210927 194.243653,134.443351 C191.498169,140.675775 187.754383,145.963812 183.012184,150.307623 C178.269984,154.651433 172.779099,158.019409 166.539362,160.411653 C160.299626,162.803896 153.623208,164 146.509909,164 C139.521404,164 132.876185,162.803896 126.574051,160.411653 C120.271917,158.019409 114.781032,154.651433 110.10123,150.307623 C105.421428,145.963812 101.70884,140.675775 98.9633561,134.443351 C96.2178722,128.210927 94.8451508,121.25464 94.8451508,113.574279 C94.8451508,105.893919 96.2178722,98.9691076 98.9633561,92.7996377 C101.70884,86.6301679 105.421428,81.405083 110.10123,77.1242264 C114.781032,72.8433698 120.271917,69.5698227 126.574051,67.3034868 C132.876185,65.0371509 139.521404,63.904 146.509909,63.904 C153.623208,63.904 160.299626,65.0371509 166.539362,67.3034868 C172.779099,69.5698227 178.269984,72.8433698 183.012184,77.1242264 C187.754383,81.405083 191.498169,86.6301679 194.243653,92.7996377 C196.989137,98.9691076 198.361858,105.893919 198.361858,113.574279 Z M168.553382,113.490875 C168.553382,110.46486 168.057345,107.501931 167.065255,104.602 C166.073165,101.702069 164.647057,99.1489069 162.786889,96.9424375 C160.92672,94.7359681 158.632547,92.9392986 155.9043,91.552375 C153.176053,90.1654514 150.013814,89.472 146.417489,89.472 C142.821163,89.472 139.658924,90.1654514 136.930677,91.552375 C134.20243,92.9392986 131.939259,94.7359681 130.141096,96.9424375 C128.342933,99.1489069 126.97883,101.702069 126.048746,104.602 C125.118662,107.501931 124.653627,110.46486 124.653627,113.490875 C124.653627,116.51689 125.118662,119.479819 126.048746,122.37975 C126.97883,125.279681 128.373936,127.895884 130.234104,130.228437 C132.094273,132.560991 134.388446,134.420701 137.116693,135.807625 C139.84494,137.194549 143.007179,137.888 146.603504,137.888 C150.19983,137.888 153.362069,137.194549 156.090316,135.807625 C158.818563,134.420701 161.112736,132.560991 162.972905,130.228437 C164.833073,127.895884 166.228179,125.279681 167.158263,122.37975 C168.088347,119.479819 168.553382,116.51689 168.553382,113.490875 Z M263.926156,161.35225 L263.926156,148.302625 L263.548652,148.302625 C262.416134,150.446052 260.937591,152.463366 259.112978,154.354625 C257.288366,156.245884 255.149197,157.884951 252.695408,159.271875 C250.241619,160.658799 247.5362,161.793537 244.57907,162.676125 C241.621939,163.558713 238.507561,164 235.235843,164 C228.944076,164 223.627613,162.865261 219.286293,160.59575 C214.944974,158.326239 211.421638,155.39483 208.716178,151.801438 C206.010718,148.208045 204.0603,144.110377 202.864864,139.508313 C201.669429,134.906248 201.07172,130.209691 201.07172,125.4185 L201.07172,67.168 L232.21581,67.168 L232.21581,118.23175 C232.21581,120.879513 232.40456,123.401155 232.782066,125.79675 C233.159572,128.192345 233.883114,130.335741 234.952714,132.227 C236.022315,134.118259 237.437941,135.599724 239.199636,136.671438 C240.961331,137.743151 243.289249,138.279 246.183462,138.279 C251.594382,138.279 255.715427,136.261687 258.546722,132.227 C261.378017,128.192313 262.793643,123.464235 262.793643,118.042625 L262.793643,67.168 L293.748981,67.168 L293.748981,161.35225 L263.926156,161.35225 Z M430.325998,94.2635028 C430.325998,105.934974 428.16674,116.006172 423.848159,124.477401 C419.529577,132.94863 413.834142,139.913758 406.761683,145.372994 C399.689223,150.832231 391.709356,154.84816 382.82184,157.420904 C373.934325,159.993648 364.921768,161.28 355.7839,161.28 L306.214344,161.28 L306.214344,28 L354.281793,28 C363.670013,28 372.932918,29.0981058 382.070786,31.2943503 C391.208654,33.4905948 399.34499,37.1300311 406.480038,42.2127684 C413.615085,47.2955056 419.373107,54.1037615 423.754277,62.6377401 C428.135446,71.1717188 430.325998,81.7135342 430.325998,94.2635028 Z M397.807661,94.7254106 C397.807661,87.2617984 396.581375,81.0733128 394.128767,76.1597681 C391.676158,71.2462234 388.406063,67.3278858 384.318382,64.4046377 C380.230702,61.4813896 375.577104,59.3978291 370.357451,58.1538937 C365.137797,56.9099584 359.761005,56.288 354.226914,56.288 L338.190709,56.288 L338.190709,133.536 L353.47227,133.536 C359.25791,133.536 364.823361,132.882944 370.168789,131.576812 C375.514218,130.270679 380.230702,128.124923 384.318382,125.139478 C388.406063,122.154033 391.676158,118.1735 394.128767,113.197758 C396.581375,108.222017 397.807661,102.064629 397.807661,94.7254106 Z M486.149144,120.48 L482.159107,120.48 C478.739058,120.48 475.287393,120.636189 471.80401,120.948571 C468.320626,121.260954 465.217295,121.854472 462.493923,122.729143 C459.77055,123.603814 457.522218,124.884563 455.748859,126.571429 C453.975501,128.258294 453.088835,130.476177 453.088835,133.225143 C453.088835,134.974485 453.500501,136.473899 454.323846,137.723429 C455.147191,138.972959 456.192191,139.972568 457.458875,140.722286 C458.72556,141.472004 460.182226,142.003046 461.828916,142.315429 C463.475607,142.627811 465.058939,142.784 466.578961,142.784 C472.912385,142.784 477.757382,141.065922 481.114097,137.629714 C484.470812,134.193507 486.149144,129.539077 486.149144,123.666286 L486.149144,120.48 Z M430.995762,80.172289 C436.451263,74.9308331 442.805587,70.9998002 450.058924,68.3790722 C457.312261,65.7583443 464.720473,64.448 472.283782,64.448 C480.095068,64.448 486.697365,65.4151589 492.090872,67.3495057 C497.484379,69.2838525 501.854914,72.2789252 505.202608,76.3348137 C508.550302,80.3907022 510.999041,85.5072847 512.5489,91.6847148 C514.098758,97.862145 514.873676,105.193833 514.873676,113.68 L514.873676,160.665673 L486.976365,160.665673 L486.976365,150.744395 L486.418419,150.744395 C484.062634,154.613089 480.498014,157.608162 475.72445,159.729703 C470.950886,161.851245 465.774437,162.912 460.194947,162.912 C456.475287,162.912 452.631696,162.412821 448.664059,161.414449 C444.696421,160.416076 441.069807,158.793745 437.784108,156.547407 C434.498408,154.301069 431.801695,151.305996 429.693888,147.562099 C427.58608,143.818202 426.532192,139.200798 426.532192,133.709749 C426.532192,126.970734 428.360998,121.542165 432.018663,117.423878 C435.676329,113.305592 440.387828,110.123327 446.153301,107.876989 C451.918774,105.63065 458.335091,104.133114 465.402445,103.384335 C472.469799,102.635555 479.351067,102.261171 486.046455,102.261171 L486.046455,100.76362 C486.046455,96.1461467 484.434626,92.7454913 481.210921,90.5615513 C477.987216,88.3776114 474.019638,87.2856578 469.308068,87.2856578 C464.968465,87.2856578 460.78391,88.221618 456.754279,90.0935665 C452.724647,91.9655151 449.284013,94.2118196 446.432274,96.8325475 L430.995762,80.172289 Z M557.698595,89.6705897 L557.698595,125.628905 C557.698595,130.04486 558.53204,133.356777 560.198955,135.564755 C561.86587,137.772733 564.860097,138.876705 569.181728,138.876705 C570.66343,138.876705 572.237715,138.750537 573.904629,138.498197 C575.571544,138.245856 576.960619,137.867351 578.071895,137.362671 L578.442319,160.073186 C576.343241,160.830207 573.688565,161.49259 570.478211,162.060356 C567.267857,162.628121 564.057551,162.912 560.847196,162.912 C554.673438,162.912 549.487559,162.123448 545.289403,160.546321 C541.091248,158.969194 537.7266,156.698166 535.195359,153.733167 C532.664118,150.768168 530.842887,147.235457 529.731611,143.134927 C528.620334,139.034397 528.064704,134.460797 528.064704,129.413991 L528.064704,89.6705897 L513.247759,89.6705897 L513.247759,66.392312 L527.879492,66.392312 L527.879492,41.6 L557.698595,41.6 L557.698595,66.392312 L579.368378,66.392312 L579.368378,89.6705897 L557.698595,89.6705897 Z M636.275469,120.48 L632.285431,120.48 C628.865382,120.48 625.413718,120.636189 621.930334,120.948571 C618.446951,121.260954 615.343619,121.854472 612.620247,122.729143 C609.896875,123.603814 607.648543,124.884563 605.875184,126.571429 C604.101825,128.258294 603.215159,130.476177 603.215159,133.225143 C603.215159,134.974485 603.626825,136.473899 604.45017,137.723429 C605.273516,138.972959 606.318515,139.972568 607.5852,140.722286 C608.851885,141.472004 610.30855,142.003046 611.955241,142.315429 C613.601931,142.627811 615.185263,142.784 616.705285,142.784 C623.03871,142.784 627.883707,141.065922 631.240421,137.629714 C634.597136,134.193507 636.275469,129.539077 636.275469,123.666286 L636.275469,120.48 Z M581.122086,80.172289 C586.577588,74.9308331 592.931912,70.9998002 600.185249,68.3790722 C607.438586,65.7583443 614.846797,64.448 622.410106,64.448 C630.221392,64.448 636.823689,65.4151589 642.217196,67.3495057 C647.610703,69.2838525 651.981238,72.2789252 655.328932,76.3348137 C658.676626,80.3907022 661.125366,85.5072847 662.675224,91.6847148 C664.225082,97.862145 665,105.193833 665,113.68 L665,160.665673 L637.102689,160.665673 L637.102689,150.744395 L636.544743,150.744395 C634.188959,154.613089 630.624338,157.608162 625.850774,159.729703 C621.077211,161.851245 615.900761,162.912 610.321271,162.912 C606.601611,162.912 602.75802,162.412821 598.790383,161.414449 C594.822746,160.416076 591.196132,158.793745 587.910432,156.547407 C584.624732,154.301069 581.928019,151.305996 579.820212,147.562099 C577.712405,143.818202 576.658517,139.200798 576.658517,133.709749 C576.658517,126.970734 578.487322,121.542165 582.144988,117.423878 C585.802653,113.305592 590.514152,110.123327 596.279625,107.876989 C602.045098,105.63065 608.461415,104.133114 615.528769,103.384335 C622.596123,102.635555 629.477391,102.261171 636.172779,102.261171 L636.172779,100.76362 C636.172779,96.1461467 634.560951,92.7454913 631.337245,90.5615513 C628.11354,88.3776114 624.145962,87.2856578 619.434393,87.2856578 C615.094789,87.2856578 610.910235,88.221618 606.880603,90.0935665 C602.850971,91.9655151 599.410338,94.2118196 596.558598,96.8325475 L581.122086,80.172289 Z" id="YouData" fill="#8585AD"></path>
            <g id="Group-2" transform="translate(707, 0)">
                <path d="M176.532033,58.3309659 L176.532033,191 L0,191 L0,14.1079545 L110.332521,14.1079545 L110.332521,36.2194602 L132.399025,36.2194602 L132.399025,58.3309659 L176.532033,58.3309659 Z" id="Rectangle-1" fill="#8585AD"></path>
                <rect id="Rectangle-7" fill="#8585AD" x="135.250696" y="31.4715909" width="21.7270195" height="21.7045455"></rect>
                <rect id="Rectangle-7" fill="#8585AD" x="161.32312" y="27.1306818" width="21.7270195" height="21.7045455"></rect>
                <rect id="Rectangle-7" fill="#8585AD" x="173.272981" y="0" width="21.7270195" height="21.7045455"></rect>
                <rect id="Rectangle-7" fill="#8585AD" x="142.311978" y="2.17045455" width="21.7270195" height="21.7045455"></rect>
                <rect id="Rectangle-7" fill="#8585AD" x="114.610028" y="7.59659091" width="21.7270195" height="21.7045455"></rect>
                <path d="M139.130027,127.109261 C135.56024,132.46785 131.581924,137.192139 127.194957,141.282269 C115.625408,151.999446 102.830281,157.357955 88.8091922,157.357955 C74.8311127,157.357955 62.0574901,152.025333 50.4879413,141.359929 C46.0579653,137.218025 42.0581441,132.480793 38.4883576,127.148092 C34.9185712,121.81539 33.1337047,118.683122 33.1337047,117.751193 C33.1337047,117.285229 33.4132621,116.806329 33.9723853,116.314478 C34.5315085,115.822626 35.0476145,115.576705 35.5207187,115.576705 C35.907804,115.576705 36.2088658,115.732024 36.4239131,116.042666 C43.649505,125.62082 51.4556077,132.545462 59.8424554,136.816801 C68.2293031,141.08814 77.8847855,143.223777 88.8091922,143.223777 C99.8196179,143.223777 109.496605,141.08814 117.840443,136.816801 C126.184281,132.545462 133.968879,125.62082 141.194471,116.042666 C141.452528,115.732024 141.796599,115.576705 142.226693,115.576705 C142.742807,115.576705 143.248161,115.83557 143.74277,116.353308 C144.237379,116.871046 144.48468,117.362889 144.48468,117.828854 C144.48468,118.657235 142.699813,121.750673 139.130027,127.109261 Z" id="(" fill="#FFFFFF"></path>
            </g>
        </g>
    </g>
</svg>